<?xml version="1.0" encoding="UTF-8" standalone="no"?>
<!-- icon666.com - MILLIONS vector ICONS FREE -->

<svg
   version="1.1"
   id="Capa_1"
   x="0px"
   y="0px"
   viewBox="0 0 400 315"
   xml:space="preserve"
   sodipodi:docname="backSpace.svg"
   inkscape:version="1.3 (0e150ed6c4, 2023-07-21)"
   width="400"
   height="315"
   xmlns:inkscape="http://www.inkscape.org/namespaces/inkscape"
   xmlns:sodipodi="http://sodipodi.sourceforge.net/DTD/sodipodi-0.dtd"
   xmlns:xlink="http://www.w3.org/1999/xlink"
   xmlns="http://www.w3.org/2000/svg"
   xmlns:svg="http://www.w3.org/2000/svg"><defs
     id="defs4"><color-profile
       name="sRGB-IEC61966-2.1"
       xlink:href="file:///C:/WINDOWS/system32/spool/drivers/color/sRGB%20Color%20Space%20Profile.icm"
       id="color-profile1" /></defs><sodipodi:namedview
     id="namedview4"
     pagecolor="#ffffff"
     bordercolor="#111111"
     borderopacity="1"
     inkscape:showpageshadow="0"
     inkscape:pageopacity="0"
     inkscape:pagecheckerboard="1"
     inkscape:deskcolor="#d1d1d1"
     inkscape:zoom="2.0043994"
     inkscape:cx="196.56761"
     inkscape:cy="162.89168"
     inkscape:window-width="1920"
     inkscape:window-height="1017"
     inkscape:window-x="-8"
     inkscape:window-y="1072"
     inkscape:window-maximized="1"
     inkscape:current-layer="Capa_1"
     showgrid="true"><inkscape:grid
       id="grid10"
       units="px"
       originx="0"
       originy="0"
       spacingx="1"
       spacingy="1"
       empcolor="#0099e5"
       empopacity="0.30196078"
       color="#0099e5"
       opacity="0.14901961"
       empspacing="5"
       dotted="false"
       gridanglex="30"
       gridanglez="30"
       visible="true" /></sodipodi:namedview><path
     id="path9"
     style="color:#000000;fill:#000000;stroke:#000000;stroke-width:0;stroke-dasharray:none;stroke-opacity:1"
     inkscape:label="path9"
     d="M 121.84309,2.6880733e-4 C 112.62441,0.42251153 103.58053,4.7707488 96.105726,11.889739 92.287394,15.489832 89.204081,20.210993 85.857958,24.513486 61.247269,57.175303 36.615035,89.808914 12.017818,122.48836 5.1023632,131.98631 1.283069,145.22217 1.4975253,158.40681 c 0.1125145,9.96445 2.4805979,19.87558 6.7822203,28.05344 0.2190196,0.39989 0.6392965,1.20106 0.9538825,1.7328 2.5265609,4.4158 5.6991239,8.06617 8.5894149,12.04367 24.625226,32.66977 49.230629,65.36619 73.868246,98.0193 6.489707,8.17799 14.871091,13.56057 23.638181,15.7794 3.51019,0.92251 7.0971,1.01579 10.66294,0.94656 78.79918,-0.006 157.59851,0.0129 236.39761,-0.0102 9.73552,-0.11453 19.31809,-5.54601 26.21052,-14.64364 6.91075,-8.97824 11.12048,-21.53544 11.37277,-34.3802 0.0546,-14.99981 0.006,-30.0009 0.0211,-45.00117 -0.007,-57.11687 0.008,-114.23394 -0.0187,-171.350659 -0.1136,-9.261717 -2.24821,-18.442133 -6.0319,-26.221009 -0.22052,-0.436853 -0.63044,-1.27094 -0.93935,-1.840587 C 386.99602,10.17581 377.37092,2.2730614 366.98443,0.44857189 c -4.15363,-0.76927902 -8.35819,-0.36768154 -12.53641,-0.46840747 -77.3346,0.0057335 -154.66931,-0.01147505 -232.00383,0.0086053 -0.20035,0.00365317 -0.40072,0.00730635 -0.60107,0.010961567 z M 122.89397,15.756691 c 79.84183,0.0058 159.68378,-0.01168 239.52555,0.0088 7.47943,0.159452 14.79241,4.870937 19.5563,12.511423 4.10891,6.432554 6.30421,14.90193 6.11812,23.323355 5e-4,71.183201 0.0195,142.366521 0.003,213.549621 -0.11285,9.87643 -3.62952,19.54009 -9.3465,25.85519 -4.86409,5.50899 -11.29118,8.44721 -17.67774,8.20096 -79.48453,-0.004 -158.96922,0.009 -238.45363,-0.006 -4.02103,-0.23109 -7.88699,-1.99343 -11.60452,-3.92027 C 107.1132,293.12613 103.21481,290.66175 100,286.96003 87.573054,270.53562 75.192597,254.0443 62.783802,237.59457 48.676662,218.85683 34.546504,200.14475 20.453687,181.39106 c -5.347891,-7.42238 -7.932442,-18.11244 -6.908934,-28.27977 0.722153,-8.07887 3.726773,-15.69686 8.201489,-21.23652 26.064787,-34.564606 52.111887,-69.153651 78.187726,-103.702961 3.086492,-3.673774 6.883512,-6.086315 10.661002,-8.244875 3.809,-2.015159 7.76858,-3.853233 11.89591,-4.157178 0.13437,-0.0036 0.26871,-0.01097 0.40309,-0.01306 z" /><polygon
     points="290.138,171.699 272.039,153.6 238.938,186.7 205.837,153.6 187.738,171.699 220.839,204.8 187.738,237.9 205.837,256 238.938,222.899 272.039,256 290.138,237.9 257.037,204.8 "
     id="polygon2"
     style="fill:#000000;fill-opacity:1;stroke:#000000;stroke-opacity:1"
     transform="matrix(1.2942387,0,0,1.2080078,-81.402218,-89.900006)" /></svg>
