<?xml version="1.0" encoding="UTF-8" standalone="no"?>
<!-- Created with Inkscape (http://www.inkscape.org/) -->

<svg
   width="200mm"
   height="200mm"
   viewBox="0 0 200 200"
   version="1.1"
   id="svg637"
   inkscape:version="1.2.1 (9c6d41e, 2022-07-14)"
   sodipodi:docname="brightessAndVolume.svg"
   xmlns:inkscape="http://www.inkscape.org/namespaces/inkscape"
   xmlns:sodipodi="http://sodipodi.sourceforge.net/DTD/sodipodi-0.dtd"
   xmlns="http://www.w3.org/2000/svg"
   xmlns:svg="http://www.w3.org/2000/svg">
  <sodipodi:namedview
     id="namedview639"
     pagecolor="#505050"
     bordercolor="#eeeeee"
     borderopacity="1"
     inkscape:showpageshadow="0"
     inkscape:pageopacity="0"
     inkscape:pagecheckerboard="0"
     inkscape:deskcolor="#505050"
     inkscape:document-units="mm"
     showgrid="false"
     inkscape:zoom="0.76078844"
     inkscape:cx="253.68419"
     inkscape:cy="402.21431"
     inkscape:window-width="1920"
     inkscape:window-height="1007"
     inkscape:window-x="1920"
     inkscape:window-y="0"
     inkscape:window-maximized="1"
     inkscape:current-layer="layer1"
     inkscape:pageshadow="0" />
  <defs
     id="defs634" />
  <g
     inkscape:label="Layer 1"
     inkscape:groupmode="layer"
     id="layer1">
    <rect
       style="fill:#0c2731;fill-opacity:1;stroke:#f0f0f0;stroke-width:2.00961;stroke-miterlimit:4;stroke-dasharray:none;stroke-opacity:0.941176"
       id="rect382"
       width="197.99039"
       height="197.99039"
       x="1.004805"
       y="1.004805"
       ry="45.006634" />
    <rect
       style="fill:#f0f0f0;fill-opacity:0.941176;stroke:none;stroke-width:1.83577;stroke-miterlimit:4;stroke-dasharray:none;stroke-opacity:0.941176"
       id="rect382-3"
       width="180.86421"
       height="180.8642"
       x="9.5372372"
       y="9.5979252"
       ry="41.113567" />
    <g
       id="g13500"
       transform="matrix(1.3180462,0,0,1.4262794,-19.782961,-75.221311)"
       style="fill:#0c2731;fill-opacity:1;stroke:#000000;stroke-opacity:1">
      <path
         style="fill:#0c2731;fill-opacity:1;stroke:#000000;stroke-width:0.297949;stroke-opacity:1"
         d="m 132.13635,85.485119 c 0,0 4.92325,4.02573 4.63916,9.8029 -0.26239,5.335771 -2.99108,10.675181 -2.99108,10.675181 l -2.25997,0.14624 c 0,0 3.54406,-4.91026 3.60976,-10.923531 0.0723,-6.61994 -5.03117,-9.73835 -5.03117,-9.73835 z"
         id="path9841-3"
         sodipodi:nodetypes="csccscc" />
      <path
         style="fill:#0c2731;fill-opacity:1;stroke:#000000;stroke-width:0.297949;stroke-opacity:1"
         d="m 136.25499,80.675829 c 0,0 6.96397,5.69441 6.56211,13.86626 -0.37115,7.547491 -4.23089,15.100101 -4.23089,15.100101 l -3.19674,0.20686 c 0,0 5.01309,-6.94559 5.10603,-15.451401 0.10231,-9.36395 -7.11663,-13.77494 -7.11663,-13.77494 z"
         id="path9841-7-56"
         sodipodi:nodetypes="csccscc" />
      <path
         style="fill:#0c2731;fill-opacity:1;stroke:#000000;stroke-width:0.297949;stroke-opacity:1"
         d="m 143.97805,76.492673 c 0,0 8.72185,7.131826 8.21856,17.366446 -0.46483,9.452681 -5.29887,18.911761 -5.29887,18.911761 l -4.00369,0.25907 c 0,0 6.27853,-8.69883 6.39492,-19.351731 0.12814,-11.72764 -8.91304,-17.252085 -8.91304,-17.252085 z"
         id="path9841-7-5-2"
         sodipodi:nodetypes="csccscc" />
    </g>
    <rect
       style="fill:#0c2731;stroke:#000000;stroke-width:3.07398;paint-order:stroke fill markers;fill-opacity:1"
       id="rect842"
       width="224.53897"
       height="10.818692"
       x="29.151606"
       y="-5.3642473"
       ry="5.4093456"
       transform="matrix(0.70733517,0.70687832,-0.70196927,0.71220724,0,0)" />
    <path
       style="fill:#0c2731;stroke:#000000;stroke-width:3.21433;paint-order:stroke fill markers;fill-opacity:1"
       d="m 144.29143,24.432969 -17.37967,20.387479 -22.74041,0.228294 -0.0224,27.29872 24.43022,-0.05559 15.66183,17.929765 z"
       id="path920"
       sodipodi:nodetypes="ccccccc" />
    <g
       id="g2161"
       transform="matrix(0.79920776,0,0,0.79920776,12.350553,26.290206)"
       style="fill:#0c2731;fill-opacity:1">
      <path
         id="path1243"
         style="fill:#0c2731;stroke:#000000;stroke-width:3.27197;stroke-opacity:1;paint-order:stroke fill markers;fill-opacity:1"
         d="m 58.120354,108.27375 a 35.864014,35.864014 0 0 0 -35.863961,35.86396 35.864014,35.864014 0 0 0 35.863961,35.86396 35.864014,35.864014 0 0 0 35.863961,-35.86396 35.864014,35.864014 0 0 0 -35.863961,-35.86396 z m -0.911055,7.21041 v 42.16177 h 0.06253 v 15.14791 A 28.691208,28.69121 0 0 1 29.429082,144.13771 28.691208,28.69121 0 0 1 57.209299,115.48416 Z" />
      <rect
         style="fill:#0c2731;stroke:#000000;stroke-width:2.98201;stroke-opacity:1;paint-order:stroke fill markers;fill-opacity:1"
         id="rect1951"
         width="2.8247409"
         height="9.3223152"
         x="55.491005"
         y="93.31601"
         ry="1.4123704" />
      <rect
         style="fill:#0c2731;stroke:#000000;stroke-width:2.98201;stroke-opacity:1;paint-order:stroke fill markers;fill-opacity:1"
         id="rect1951-2"
         width="2.8247409"
         height="9.3223152"
         x="55.491005"
         y="185.175"
         ry="1.4123704" />
      <rect
         style="fill:#0c2731;stroke:#000000;stroke-width:2.98201;stroke-opacity:1;paint-order:stroke fill markers;fill-opacity:1"
         id="rect1951-9"
         width="2.8247409"
         height="9.3223152"
         x="141.491"
         y="-109.24232"
         ry="1.4123704"
         transform="rotate(90)" />
      <rect
         style="fill:#0c2731;stroke:#000000;stroke-width:2.98201;stroke-opacity:1;paint-order:stroke fill markers;fill-opacity:1"
         id="rect1951-9-2"
         width="2.8247409"
         height="9.3223152"
         x="141.491"
         y="-16.87532"
         ry="1.4123704"
         transform="rotate(90)" />
      <rect
         style="fill:#0c2731;stroke:#000000;stroke-width:2.98201;stroke-opacity:1;paint-order:stroke fill markers;fill-opacity:1"
         id="rect1951-9-7"
         width="2.8247409"
         height="9.3223152"
         x="68.699059"
         y="-95.822212"
         ry="1.4123704"
         transform="rotate(130.45985)" />
      <rect
         style="fill:#0c2731;stroke:#000000;stroke-width:2.98201;stroke-opacity:1;paint-order:stroke fill markers;fill-opacity:1"
         id="rect1951-9-7-0"
         width="2.8247409"
         height="9.3223152"
         x="144.05695"
         y="-7.4641781"
         ry="1.4123704"
         transform="matrix(0.64891503,0.76086088,0.76086088,-0.64891503,0,0)" />
      <rect
         style="fill:#0c2731;stroke:#000000;stroke-width:2.98201;stroke-opacity:1;paint-order:stroke fill markers;fill-opacity:1"
         id="rect1951-9-7-0-9"
         width="2.8247409"
         height="9.3223152"
         x="-71.542015"
         y="179.71112"
         ry="1.4123704"
         transform="rotate(-49.54015)" />
      <rect
         style="fill:#0c2731;stroke:#000000;stroke-width:2.98201;stroke-opacity:1;paint-order:stroke fill markers;fill-opacity:1"
         id="rect1951-9-7-0-3"
         width="2.8247409"
         height="9.3223152"
         x="144.04266"
         y="-100.71346"
         ry="1.4123704"
         transform="matrix(0.64891503,0.76086088,0.76086088,-0.64891503,0,0)" />
    </g>
  </g>
</svg>
