<?xml version="1.0" encoding="UTF-8" standalone="no"?>
<!-- Created with Inkscape (http://www.inkscape.org/) -->

<svg
   width="200mm"
   height="85mm"
   viewBox="0 0 200 85"
   version="1.1"
   id="svg5"
   inkscape:version="1.2.1 (9c6d41e, 2022-07-14)"
   sodipodi:docname="flashDrive.svg"
   xmlns:inkscape="http://www.inkscape.org/namespaces/inkscape"
   xmlns:sodipodi="http://sodipodi.sourceforge.net/DTD/sodipodi-0.dtd"
   xmlns="http://www.w3.org/2000/svg"
   xmlns:svg="http://www.w3.org/2000/svg">
  <sodipodi:namedview
     id="namedview7"
     pagecolor="#505050"
     bordercolor="#eeeeee"
     borderopacity="1"
     inkscape:showpageshadow="0"
     inkscape:pageopacity="0"
     inkscape:pagecheckerboard="0"
     inkscape:deskcolor="#505050"
     inkscape:document-units="mm"
     showgrid="false"
     inkscape:zoom="1.0759173"
     inkscape:cx="414.53"
     inkscape:cy="190.53509"
     inkscape:window-width="1920"
     inkscape:window-height="1007"
     inkscape:window-x="1920"
     inkscape:window-y="0"
     inkscape:window-maximized="1"
     inkscape:current-layer="g302"
     inkscape:pageshadow="0" />
  <defs
     id="defs2">
    <linearGradient
       id="linearGradient6428"
       inkscape:swatch="solid">
      <stop
         style="stop-color:#000000;stop-opacity:1;"
         offset="0"
         id="stop6426" />
    </linearGradient>
  </defs>
  <g
     inkscape:label="Layer 1"
     inkscape:groupmode="layer"
     id="layer1">
    <g
       id="g302"
       transform="rotate(-90,42.5,42.5)">
      <rect
         style="fill:#ffffff;fill-opacity:1;stroke:#000000;stroke-width:2.78115;paint-order:stroke fill markers"
         id="rect234"
         width="82.186142"
         height="119.98399"
         x="1.4232823"
         y="78.625435"
         ry="29.451956" />
      <rect
         style="fill:#ffffff;fill-opacity:1;stroke:#0c2731;stroke-width:2.78115;paint-order:stroke fill markers;stroke-opacity:1"
         id="rect234-3"
         width="82.186142"
         height="119.98399"
         x="1.3905751"
         y="50.458138"
         ry="0" />
      <rect
         style="fill:#ffffff;fill-opacity:1;stroke:#0c2731;stroke-width:2.99507;paint-order:stroke fill markers;stroke-opacity:1"
         id="rect423"
         width="57.737286"
         height="47.278065"
         x="13.631382"
         y="1.497535"
         ry="0" />
      <rect
         style="fill:#0c2731;stroke:#0c2731;stroke-width:3.10735;paint-order:stroke fill markers;stroke-opacity:1;fill-opacity:1"
         id="rect477"
         width="7.8704448"
         height="21.999912"
         x="25.822239"
         y="12.878429"
         ry="0" />
      <rect
         style="fill:#0c2731;stroke:#0c2731;stroke-width:3.10732;paint-order:stroke fill markers;stroke-opacity:1;fill-opacity:1"
         id="rect477-6"
         width="7.8704448"
         height="21.99992"
         x="51.307316"
         y="12.878421"
         ry="0" />
      <path
         id="rect4055"
         style="fill:#0c2731;fill-opacity:1;stroke:none;stroke-width:1.34759;stroke-linecap:butt;stroke-miterlimit:1.6;stroke-dasharray:none;stroke-dashoffset:0;stroke-opacity:1;paint-order:stroke fill markers"
         d="m 42.377745,75 a 5.5313978,4.9262787 0 0 0 -5.531357,4.926242 5.5313978,4.9262787 0 0 0 2.385391,4.050175 V 126.99047 H 27.328488 L 42.336616,140 56.726145,126.90869 45.504556,126.97289 V 90.328149 l 9.750579,5.169593 v 11.377828 a 3.2727662,2.9147349 0 0 0 -1.800592,2.60109 3.2727662,2.9147349 0 0 0 3.272728,2.91472 A 3.2727662,2.9147349 0 0 0 60,109.47666 3.2727662,2.9147349 0 0 0 58.453496,107.0005 V 94.001004 L 45.504556,87.089815 V 83.989464 A 5.5313978,4.9262787 0 0 0 47.909102,79.926242 5.5313978,4.9262787 0 0 0 42.377745,75 Z M 39.199664,95.421978 26.22368,102.34773 v 13.13096 H 25 v 5.06972 h 5.692486 v -5.06972 h -1.269879 v -11.63423 l 9.767481,-5.178633 z" />
    </g>
  </g>
</svg>
