<?xml version="1.0" encoding="UTF-8" standalone="no"?>
<!-- Created with Inkscape (http://www.inkscape.org/) -->

<svg
   width="200mm"
   height="200mm"
   viewBox="0 0 200 200"
   version="1.1"
   id="svg5"
   inkscape:version="1.3 (0e150ed6c4, 2023-07-21)"
   sodipodi:docname="fluidInjectionEnd.svg"
   inkscape:export-filename="home.svg"
   inkscape:export-xdpi="25.4"
   inkscape:export-ydpi="25.4"
   xml:space="preserve"
   xmlns:inkscape="http://www.inkscape.org/namespaces/inkscape"
   xmlns:sodipodi="http://sodipodi.sourceforge.net/DTD/sodipodi-0.dtd"
   xmlns="http://www.w3.org/2000/svg"
   xmlns:svg="http://www.w3.org/2000/svg"><sodipodi:namedview
     id="namedview7"
     pagecolor="#505050"
     bordercolor="#eeeeee"
     borderopacity="1"
     inkscape:pageshadow="0"
     inkscape:pageopacity="0"
     inkscape:pagecheckerboard="0"
     inkscape:document-units="mm"
     showgrid="false"
     width="200mm"
     inkscape:zoom="1.0951916"
     inkscape:cx="389.88613"
     inkscape:cy="366.14599"
     inkscape:window-width="1920"
     inkscape:window-height="1001"
     inkscape:window-x="-9"
     inkscape:window-y="-9"
     inkscape:window-maximized="1"
     inkscape:current-layer="layer1"
     inkscape:showpageshadow="0"
     inkscape:deskcolor="#505050" /><defs
     id="defs2"><linearGradient
       id="swatch1"
       inkscape:swatch="solid"><stop
         style="stop-color:#000000;stop-opacity:1;"
         offset="0"
         id="stop1" /></linearGradient></defs><g
     inkscape:label="Layer 1"
     inkscape:groupmode="layer"
     id="layer1"
     transform="translate(-24.495907,-32.70782)"><rect
       style="fill:#0c2731;fill-opacity:1;stroke:#ffffff;stroke-width:2.00961;stroke-miterlimit:4;stroke-dasharray:none;stroke-opacity:1"
       id="rect382"
       width="197.99039"
       height="197.99039"
       x="25.500711"
       y="33.712624"
       ry="45.006634" /><rect
       style="fill:#ffffff;fill-opacity:1;stroke:none;stroke-width:1.83577;stroke-miterlimit:4;stroke-dasharray:none;stroke-opacity:0.941176"
       id="rect382-3"
       width="180.86423"
       height="180.8642"
       x="34.033142"
       y="42.305744"
       ry="41.113567" /><g
       id="g1"
       transform="matrix(-1.4318555,0,0,-1.469528,192.01847,202.79782)"><path
         d="M 40.75,74.25 22.5,56 58.56,19.93 a 8.6,8.6 0 0 1 12.17,0 L 76.82,26 a 8.6,8.6 0 0 1 0,12.17 z"
         style="display:inline;fill:#eaeaea"
         id="path4" /><path
         d="m 56.72,52.28 -11,11 a 11.31,11.31 0 0 1 -16,0 l 11,11 19,-19 z"
         style="fill:#c2d2d3"
         id="path5" /><path
         d="M 76.82,38.19 60,55 l -0.41,0.19 -0.23,0.11 -3,-3 9.76,-9.76 a 8.61,8.61 0 0 0 0,-12.17 l -1,-1 a 11.31,11.31 0 0 0 -16,0 v 0 l 9.43,-9.43 a 8.61,8.61 0 0 1 12.17,0 l 6.1,6.06 a 8.61,8.61 0 0 1 0,12.19 z"
         style="fill:#c2d2d3;fill-opacity:1"
         id="path13" /><g
         id="g2"
         style="display:inline;fill:none;fill-opacity:1;stroke:#0c2731;stroke-opacity:1"><line
           style="fill:none;stroke:#0c2731;stroke-width:4px;stroke-linecap:round;stroke-linejoin:round;fill-opacity:1;stroke-opacity:1"
           x1="57.75"
           x2="64.529999"
           y1="20.74"
           y2="27.52"
           id="line14" /><line
           style="fill:none;fill-opacity:1;stroke:#0c2731;stroke-width:4px;stroke-linecap:round;stroke-linejoin:round;stroke-opacity:1"
           x1="16.41"
           x2="46.830002"
           y1="49.919998"
           y2="80.339996"
           id="line15" /><line
           style="fill:none;stroke:#0c2731;stroke-width:4px;stroke-linecap:round;stroke-linejoin:round;fill-opacity:1;stroke-opacity:1"
           x1="30.65"
           x2="34.709999"
           y1="47.849998"
           y2="51.91"
           id="line13" /><line
           style="display:inline;fill:none;fill-opacity:1;stroke:#0c2731;stroke-width:4px;stroke-linecap:round;stroke-linejoin:round;stroke-opacity:1"
           x1="41.490002"
           x2="45.560001"
           y1="37.009998"
           y2="41.07"
           id="line11" /><line
           style="fill:none;stroke:#0c2731;stroke-width:4px;stroke-linecap:round;stroke-linejoin:round;fill-opacity:1;stroke-opacity:1"
           x1="36.07"
           x2="42.849998"
           y1="42.43"
           y2="49.200001"
           id="line12" /><line
           style="fill:none;stroke:#0c2731;stroke-width:4px;stroke-linecap:round;stroke-linejoin:round;fill-opacity:1;stroke-opacity:1"
           x1="46.91"
           x2="53.689999"
           y1="31.59"
           y2="38.360001"
           id="line10" /><path
           d="m 76.82,26 -6.08,-6.08 3,-3 a 4.3,4.3 0 0 1 6.08,0 v 0 a 4.3,4.3 0 0 1 0,6.08 z"
           style="fill:none;stroke:#0c2731;stroke-width:4px;stroke-linecap:round;stroke-linejoin:round;fill-opacity:1;stroke-opacity:1"
           id="path9" /><line
           style="fill:none;stroke:#0c2731;stroke-width:4px;stroke-linecap:round;stroke-linejoin:round;fill-opacity:1;stroke-opacity:1"
           x1="52.330002"
           x2="56.400002"
           y1="26.16"
           y2="30.23"
           id="line9" /><line
           style="fill:none;stroke:#0c2731;stroke-width:4px;stroke-linecap:round;stroke-linejoin:round;fill-opacity:1;stroke-opacity:1"
           x1="94"
           x2="79.860001"
           y1="2.75"
           y2="16.889999"
           id="line7" /><rect
           height="37.02"
           rx="4.3000002"
           ry="4.3000002"
           style="fill:none;stroke:#0c2731;stroke-width:4px;stroke-linecap:round;stroke-linejoin:round;fill-opacity:1;stroke-opacity:1"
           transform="rotate(-44.999999,16.405661,80.334553)"
           width="8.6000004"
           x="12.11"
           y="61.830002"
           id="rect2" /><rect
           height="8.6000004"
           style="fill:none;stroke:#0c2731;stroke-width:4px;stroke-linecap:round;stroke-linejoin:round;fill-opacity:1;stroke-opacity:1"
           transform="rotate(-44.999999,25.540596,71.220738)"
           width="17.209999"
           x="16.93"
           y="66.910004"
           id="rect4" /><path
           d="M 40.75,74.25 22.5,56 58.56,19.93 a 8.6,8.6 0 0 1 12.17,0 L 76.82,26 a 8.6,8.6 0 0 1 0,12.17 z"
           style="fill:none;stroke:#0c2731;stroke-width:4px;stroke-linecap:round;stroke-linejoin:round;fill-opacity:1;stroke-opacity:1"
           id="path6" /></g></g></g></svg>
