<?xml version="1.0" encoding="UTF-8" standalone="no"?>
<!-- Created with Inkscape (http://www.inkscape.org/) -->

<svg
   width="200mm"
   height="200mm"
   viewBox="0 0 200 200"
   version="1.1"
   id="svg5"
   inkscape:version="1.3 (0e150ed6c4, 2023-07-21)"
   sodipodi:docname="goBack_pressed.svg"
   inkscape:export-filename="home.svg"
   inkscape:export-xdpi="25.4"
   inkscape:export-ydpi="25.4"
   xml:space="preserve"
   xmlns:inkscape="http://www.inkscape.org/namespaces/inkscape"
   xmlns:sodipodi="http://sodipodi.sourceforge.net/DTD/sodipodi-0.dtd"
   xmlns="http://www.w3.org/2000/svg"
   xmlns:svg="http://www.w3.org/2000/svg"><sodipodi:namedview
     id="namedview7"
     pagecolor="#505050"
     bordercolor="#eeeeee"
     borderopacity="1"
     inkscape:pageshadow="0"
     inkscape:pageopacity="0"
     inkscape:pagecheckerboard="0"
     inkscape:document-units="mm"
     showgrid="false"
     width="200mm"
     inkscape:zoom="0.96102398"
     inkscape:cx="383.96544"
     inkscape:cy="399.05352"
     inkscape:window-width="1920"
     inkscape:window-height="1001"
     inkscape:window-x="-9"
     inkscape:window-y="-9"
     inkscape:window-maximized="1"
     inkscape:current-layer="layer1"
     inkscape:showpageshadow="0"
     inkscape:deskcolor="#505050" /><defs
     id="defs2"><linearGradient
       id="swatch1"
       inkscape:swatch="solid"><stop
         style="stop-color:#000000;stop-opacity:1;"
         offset="0"
         id="stop1" /></linearGradient><clipPath
       clipPathUnits="userSpaceOnUse"
       id="clipPath183"><path
         id="path184"
         style="fill:#ff0000;fill-opacity:1;fill-rule:nonzero;stroke:none;stroke-width:0.264583"
         d="m -109.17485,76.207328 v 61.800882 c 1.37505,-0.16906 2.69023,-0.32917 4.28759,-0.51315 0.12889,-0.0148 2.88675,-0.33112 4.36511,-0.47284 0.718833,-0.319 1.439804,-0.63269 2.162659,-0.93999 1.708848,-0.69848 3.43368,-1.36611 5.19658,-1.91668 0.325197,-0.10149 0.623708,-0.14977 0.891421,-0.15451 1.681837,-0.0298 2.143895,1.64245 0.578776,2.50062 0.05764,0.0479 0.112538,0.0992 0.163812,0.15503 0.233579,0.25417 0.306326,0.55409 0.31006,0.87385 0.221546,0.37474 0.178006,0.87746 -0.146246,1.34513 -0.01664,0.25495 -0.0019,0.50087 0.08733,0.72502 0.105212,0.38594 0.200679,0.76267 0.247531,1.13585 0.757561,-0.11761 1.515396,-0.2332 2.271697,-0.36018 v -5.3e-4 c 0.167971,-0.0282 0.326435,-0.0439 0.475422,-0.0486 2.234795,-0.0701 2.316853,2.35728 -0.201536,2.78846 -0.533757,0.0914 -1.069573,0.1681 -1.604039,0.25425 0.09361,0.20339 0.105082,0.42742 0.06046,0.65009 0.08779,-0.0421 0.174638,-0.0863 0.262517,-0.12816 0.461245,-0.21993 0.876035,-0.31055 1.229381,-0.30489 1.531165,0.0245 1.908352,1.85691 -0.08992,2.8112 -0.373092,0.17817 -0.744114,0.36111 -1.115695,0.5426 0.209563,0.12823 0.426714,0.24252 0.622183,0.39688 0.210971,0.19122 0.397124,0.40586 0.584978,0.61857 0.298961,-0.16169 0.592069,-0.33324 0.875917,-0.52039 2.160889,-1.42458 3.633541,0.64235 1.799373,2.09497 0.635756,0.20411 1.041902,0.53579 1.269174,0.89348 0.332878,-0.43976 0.65087,-0.89046 0.927592,-1.36891 0.511678,-0.88474 1.171199,-1.29358 1.730126,-1.3317 0.302499,-0.0206 0.568132,0.0772 0.772044,0.25735 0.341688,-0.35846 0.68771,-0.71296 1.045416,-1.05627 0.614487,-0.58976 1.227231,-0.80475 1.719276,-0.76429 1.082479,0.089 1.581124,1.41491 0.227891,2.71095 -0.511823,0.49013 -1.000154,1.0023 -1.481045,1.52187 0.01638,-0.005 0.03164,-0.0132 0.04806,-0.0181 0.326446,-0.0975 0.625814,-0.14168 0.894517,-0.14314 0.30263,-0.002 0.55032,0.0651 0.770498,0.15761 0.846675,-0.44352 1.700432,-0.87303 2.56005,-1.29243 0.459277,-0.22408 0.87557,-0.31956 1.232998,-0.31884 1.548858,0.003 1.988968,1.8116 -0.0021,2.78122 -0.632098,0.30785 -1.257798,0.62841 -1.88309,0.9493 0.11045,0.51321 -0.08657,1.19193 -0.763778,1.86914 -0.762654,0.76266 -1.525059,1.52505 -2.287715,2.28771 -1.319183,1.22052 -2.627191,2.45318 -3.943945,3.67626 -1.251839,1.23065 -2.538442,2.4236 -3.801319,3.64267 -1.130681,1.13954 -2.289731,2.25077 -3.439583,3.37086 -0.195356,0.19235 -0.393896,0.38136 -0.592728,0.56999 -1.100627,1.15225 -2.206847,2.29921 -3.292824,3.46542 -0.290931,0.31243 -0.580853,0.50131 -0.864029,0.63821 -0.03485,0.0392 -0.07079,0.0773 -0.10542,0.11678 -0.43174,0.46324 -0.81383,0.96622 -1.222148,1.44901 -1.759992,2.08101 -3.871319,0.28399 -2.096513,-1.78439 0.420981,-0.49062 0.806056,-1.01015 1.250053,-1.48156 0.182552,-0.20773 0.3683,-0.41242 0.556038,-0.61495 -0.06293,0.0572 -0.127355,0.1127 -0.190167,0.17002 -0.45317,0.41353 -0.89803,0.62951 -1.292945,0.69711 -0.362947,0.39746 -0.726477,0.7944 -1.086757,1.19424 -1.670678,1.85425 -3.524538,0.46477 -2.424138,-1.33738 0.0215,-0.10569 0.0294,-0.20731 0.0734,-0.31885 -0.31465,-0.24777 -0.45782,-0.66664 -0.37724,-1.15496 -0.38197,-0.29815 -0.52213,-0.8252 -0.2992,-1.39992 -0.46626,0.30587 -0.93034,0.61494 -1.39837,0.91829 l -0.62632,0.41238 c -2.27605,1.49913 -3.79032,-0.8007 -1.51412,-2.2996 0.20967,-0.13807 0.41924,-0.27587 0.62891,-0.41393 -0.0882,0.0341 -0.13228,0.0479 -0.35244,0.13281 -0.53525,0.20652 -0.99637,0.24936 -1.37562,0.18913 -0.20257,0.15243 -0.41059,0.29735 -0.6103,0.45372 -0.63556,0.49768 -1.22885,0.65162 -1.69757,0.58601 v 20.84008 H 3.0110645 V 76.207328 Z m 0.66249,68.009282 c -0.22098,0.0626 -0.4418,0.12606 -0.66249,0.18966 v 0.40359 c 0.27809,-0.0899 0.55646,-0.18261 0.83457,-0.27389 -0.0522,-0.10231 -0.13196,-0.22644 -0.17208,-0.31936 z m 1.0759,2.92179 c -0.36751,0.1203 -0.73532,0.24248 -1.10277,0.3607 -0.21204,0.0671 -0.42365,0.13574 -0.63562,0.20309 v 0.32866 c 0.57884,-0.29873 1.15757,-0.59758 1.73839,-0.89245 z m 0.46612,6.33708 c -0.12245,0.0752 -0.24517,0.14982 -0.36742,0.22531 -0.0512,0.37368 -0.0838,0.75108 -0.11162,1.12861 0.12995,-0.46329 0.29453,-0.91275 0.47904,-1.35392 z m -0.70021,4.73925 c -0.15566,1.18719 -0.84491,1.75574 -1.5043,1.65726 v 4.92786 c 0.001,-7.9e-4 0.002,-0.002 0.003,-0.003 1.22663,-0.95568 2.5047,-1.8396 3.79978,-2.69906 -0.0719,-0.3909 -0.13244,-0.78374 -0.17984,-1.17874 -0.0201,-0.19278 -0.006,-0.38695 -0.015,-0.58031 -0.71704,0.33183 -1.71576,-0.1446 -2.01022,-1.63816 -0.0304,-0.15403 -0.0611,-0.30847 -0.0915,-0.4625 -7.9e-4,-0.008 -0.001,-0.0155 -0.002,-0.0232 z" /></clipPath><clipPath
       clipPathUnits="userSpaceOnUse"
       id="clipPath186"><path
         id="path187"
         style="fill:#ff0000;fill-opacity:1;fill-rule:nonzero;stroke:none;stroke-width:0.264583"
         d="M 24.495907,32.30061 V 232.30029 H 224.4961 V 32.30061 Z m 64.545414,111.29657 c 1.531165,0.0245 1.908352,1.8569 -0.08992,2.81119 -1.070094,0.51104 -2.132603,1.03892 -3.191537,1.57407 0.0087,0.0186 0.01619,0.0377 0.02376,0.0568 0.662696,0.0645 1.324882,0.14071 1.970423,0.30541 0.116219,0.0296 0.195482,0.0781 0.298688,0.11472 0.643975,-0.30017 1.274842,-0.6236 1.866038,-1.01337 2.275393,-1.5002 3.790527,0.87141 1.482079,2.32027 -0.241509,0.15158 -0.493379,0.28483 -0.742074,0.42374 0.02434,0.0502 0.0408,0.10853 0.06408,0.1602 0.562324,0.20709 0.852664,0.6796 0.794266,1.18649 0.124454,0.14468 0.161274,0.27841 0.231513,0.41703 0.785796,-0.91328 1.561727,-1.84302 2.166276,-2.88819 0.511677,-0.88474 1.171199,-1.29359 1.730126,-1.33171 0.301927,-0.0206 0.54705,0.10065 0.750858,0.28009 0.34857,-0.36621 0.701413,-0.72852 1.066602,-1.079 0.614487,-0.58976 1.227225,-0.80476 1.719276,-0.7643 1.082495,0.089 1.581135,1.41491 0.227891,2.71095 -0.511824,0.49019 -1.00017,1.0023 -1.481045,1.52187 0.01638,-0.005 0.03164,-0.0132 0.04806,-0.0181 0.326435,-0.0975 0.625813,-0.14169 0.894516,-0.14314 0.302633,-0.002 0.550318,0.0651 0.770499,0.15761 0.846694,-0.44351 1.700434,-0.87303 2.560054,-1.29243 0.45927,-0.22408 0.87557,-0.31956 1.233,-0.31884 1.54886,0.003 1.98846,1.81161 -0.002,2.78123 -0.63462,0.30906 -1.24603,0.66272 -1.87379,0.98495 0.0934,0.50866 -0.11191,1.17231 -0.77308,1.83348 -0.76265,0.76266 -1.525057,1.52505 -2.287713,2.28771 -1.319183,1.22052 -2.627191,2.45319 -3.943945,3.67627 -1.251839,1.23064 -2.538442,2.42359 -3.801319,3.64267 -1.130681,1.13954 -2.289731,2.25076 -3.439583,3.37085 -0.195355,0.19235 -0.393896,0.38137 -0.592728,0.56999 -1.100627,1.15226 -2.206847,2.29923 -3.292824,3.46542 -0.290931,0.31243 -0.580853,0.50131 -0.864029,0.63821 -0.03484,0.0392 -0.07079,0.0773 -0.10542,0.11679 -0.43174,0.46324 -0.81383,0.96621 -1.222148,1.449 -1.759992,2.08101 -3.871317,0.28399 -2.096513,-1.78438 0.420981,-0.49062 0.806056,-1.01016 1.250053,-1.48157 0.182552,-0.20773 0.3683,-0.41242 0.556038,-0.61495 -0.06293,0.0572 -0.127355,0.1127 -0.190167,0.17002 -0.444587,0.4057 -0.881436,0.62211 -1.270725,0.69401 -0.371165,0.39774 -0.744826,0.79319 -1.108977,1.19735 -1.670706,1.8542 -3.524547,0.46476 -2.424139,-1.33739 0.02148,-0.10569 0.02945,-0.20731 0.07338,-0.31884 -0.314658,-0.24778 -0.457816,-0.66665 -0.377237,-1.15497 -0.381979,-0.29815 -0.522132,-0.8252 -0.299207,-1.39992 -0.466259,0.30588 -0.930338,0.61495 -1.398365,0.91829 l -0.626319,0.41238 c -2.276102,1.49914 -3.790379,-0.80069 -1.514118,-2.2996 0.209669,-0.13804 0.419238,-0.27587 0.628901,-0.41393 -0.08818,0.0341 -0.132275,0.0479 -0.352433,0.13281 -0.525833,0.20291 -0.980405,0.24814 -1.355989,0.19275 -0.206306,0.15517 -0.42658,0.29086 -0.629936,0.45011 -2.145816,1.68019 -3.844409,-0.49483 -1.694471,-2.1699 1.288597,-1.00395 2.633154,-1.92978 3.995624,-2.8298 2.3e-4,-0.35378 -2.65e-4,-0.70762 0.0011,-1.06143 0.0016,-0.61452 0.0027,-1.22933 0.01138,-1.84382 -0.664186,-0.095 -1.181354,-0.57062 -1.758032,-2.00091 -0.151654,-0.37614 0.346422,-0.74536 0.612884,-1.0511 0.294584,-0.33805 0.683159,-0.58128 1.042828,-0.84904 0.05621,-0.0418 0.411266,-0.28352 0.610299,-0.42117 0.004,-0.012 0.0052,-0.0247 0.0093,-0.0367 0.219483,-0.61474 0.5031,-1.19722 0.826307,-1.75803 -0.05773,-0.0643 -0.114914,-0.12595 -0.173117,-0.19689 -0.331335,-0.40383 0.264166,-1.03925 0.57826,-1.45675 0.05186,-0.0689 0.110525,-0.13151 0.171567,-0.19172 -0.07588,-0.0188 -0.182311,-0.004 -0.248047,-0.0331 -1.470372,0.41194 -2.401636,-1.19399 -0.756028,-2.66392 0.338013,-0.3019 0.677941,-0.60081 1.065051,-0.84026 0.698881,-0.4217 1.437455,-0.71971 2.258777,-0.7953 0.460433,-0.0337 0.920636,-0.0416 1.380794,-0.0336 0.460155,0.008 0.920313,0.0319 1.380794,0.0605 0.721723,0.047 1.439495,0.13978 2.155426,0.24288 2.065094,-1.07573 4.140276,-2.13364 6.240962,-3.13521 0.461259,-0.21991 0.876057,-0.31053 1.229381,-0.30489 z" /></clipPath></defs><g
     inkscape:label="Layer 1"
     inkscape:groupmode="layer"
     id="layer1"
     transform="translate(-24.495907,-32.70782)"><rect
       style="fill:#0c2731;fill-opacity:1;stroke:#ffffff;stroke-width:2.00961;stroke-miterlimit:4;stroke-dasharray:none;stroke-opacity:1"
       id="rect382"
       width="197.99039"
       height="197.99039"
       x="25.500711"
       y="33.305332"
       ry="45.006634"
       clip-path="url(#clipPath186)" /><rect
       style="fill:#e3e4e5;fill-opacity:1;stroke:none;stroke-width:1.83577;stroke-miterlimit:4;stroke-dasharray:none;stroke-opacity:0.941176"
       id="rect382-3"
       width="180.86423"
       height="180.8642"
       x="34.033142"
       y="42.305744"
       ry="41.113567" /><circle
       style="fill:none;fill-opacity:1;stroke:#0c2731;stroke-width:15;stroke-linecap:round;stroke-linejoin:round"
       id="path1"
       cx="-53.081612"
       cy="132.30052"
       r="48.592915"
       clip-path="url(#clipPath183)"
       transform="translate(177.57764,1.6202883e-4)" /><path
       style="fill:#e3e4e5;fill-opacity:1;stroke:#0c2731;stroke-width:15;stroke-linecap:round;stroke-linejoin:round"
       d="M 72.675852,133.47274 94.719059,120.74609 Z"
       id="path2" /><path
       style="fill:#e3e4e5;fill-opacity:1;stroke:#0c2731;stroke-width:15;stroke-linecap:round;stroke-linejoin:round"
       d="M 71.930339,133.31476 62.104185,109.83461 Z"
       id="path2-9" /><ellipse
       style="fill:#0c2731;fill-opacity:1;stroke:#0c2731;stroke-width:8.892;stroke-linecap:round;stroke-linejoin:round;stroke-dasharray:none"
       id="path188"
       cx="89.194695"
       cy="165.57898"
       rx="3.0284543"
       ry="3.1339502" /></g></svg>
