<?xml version="1.0" encoding="UTF-8" standalone="no"?>
<!-- Created with Inkscape (http://www.inkscape.org/) -->

<svg
   width="200mm"
   height="200mm"
   viewBox="0 0 200 200"
   version="1.1"
   id="svg30092"
   inkscape:version="1.1.2 (0a00cf5339, 2022-02-04)"
   sodipodi:docname="info.svg"
   xmlns:inkscape="http://www.inkscape.org/namespaces/inkscape"
   xmlns:sodipodi="http://sodipodi.sourceforge.net/DTD/sodipodi-0.dtd"
   xmlns="http://www.w3.org/2000/svg"
   xmlns:svg="http://www.w3.org/2000/svg">
  <sodipodi:namedview
     id="namedview30094"
     pagecolor="#505050"
     bordercolor="#eeeeee"
     borderopacity="1"
     inkscape:pageshadow="0"
     inkscape:pageopacity="0"
     inkscape:pagecheckerboard="0"
     inkscape:document-units="mm"
     showgrid="false"
     inkscape:zoom="1.0998546"
     inkscape:cx="360.9568"
     inkscape:cy="348.22785"
     inkscape:window-width="2560"
     inkscape:window-height="1367"
     inkscape:window-x="0"
     inkscape:window-y="240"
     inkscape:window-maximized="1"
     inkscape:current-layer="layer1"
     inkscape:showpageshadow="0"
     inkscape:deskcolor="#505050" />
  <defs
     id="defs30089">
    <rect
       x="157.77607"
       y="289.14451"
       width="438.74475"
       height="181.59289"
       id="rect72636" />
    <rect
       x="167.08252"
       y="289.61374"
       width="411.61067"
       height="188.39727"
       id="rect45980" />
    <rect
       x="224.52129"
       y="203.00478"
       width="322.16063"
       height="365.6887"
       id="rect36342" />
  </defs>
  <g
     inkscape:label="Layer 1"
     inkscape:groupmode="layer"
     id="layer1">
    <rect
       style="fill:#0c2731;fill-opacity:1;stroke:#f0f0f0;stroke-width:2.00961;stroke-miterlimit:4;stroke-dasharray:none;stroke-opacity:0.941176"
       id="rect382"
       width="197.99039"
       height="197.99039"
       x="1.004805"
       y="1.004805"
       ry="45.006634" />
    <rect
       style="fill:#f0f0f0;fill-opacity:0.941176;stroke:none;stroke-width:1.83577;stroke-miterlimit:4;stroke-dasharray:none;stroke-opacity:0.941176"
       id="rect382-3"
       width="180.86421"
       height="180.8642"
       x="9.5372372"
       y="9.5979252"
       ry="41.113567" />
    <path
       id="path30175"
       style="fill:#0c2731;fill-opacity:1;stroke-width:1.20675"
       d="M 377.95313 94.488282 A 283.46457 283.46457 0 0 0 94.488282 377.95313 A 283.46457 283.46457 0 0 0 377.95313 661.41798 A 283.46457 283.46457 0 0 0 661.41798 377.95313 A 283.46457 283.46457 0 0 0 377.95313 94.488282 z M 377.95313 141.73242 A 236.22047 236.22047 0 0 1 614.17384 377.95313 A 236.22047 236.22047 0 0 1 377.95313 614.17384 A 236.22047 236.22047 0 0 1 141.73242 377.95313 A 236.22047 236.22047 0 0 1 377.95313 141.73242 z M 282.01172 345.82618 L 282.01172 359.70508 C 276.68515 360.13343 272.53254 361.89052 269.55469 364.97461 C 266.61879 368.05871 265.15039 372.21364 265.15039 377.43946 C 265.15039 380.90906 265.8425 383.92798 267.22657 386.49805 C 268.61064 389.02529 270.56164 391.0379 273.07813 392.53711 C 275.59462 393.99349 278.50889 394.87204 281.82227 395.17188 L 281.82227 410.07813 L 287.23243 410.07813 L 287.23243 395.17188 C 292.43317 394.7007 296.5016 392.92394 299.4375 389.83985 C 302.41535 386.75576 303.9043 382.62244 303.9043 377.43946 C 303.9043 373.96986 303.2122 370.97061 301.82813 368.44336 C 300.44406 365.91612 298.49501 363.90351 295.97852 362.4043 C 293.50397 360.90509 290.58775 360.00492 287.23243 359.70508 L 287.23243 345.82618 L 282.01172 345.82618 z M 179.52735 348.78321 L 179.52735 394.65821 L 185.81836 394.65821 L 210.60547 356.49219 L 210.85742 356.49219 C 210.81548 357.13471 210.75381 358.20587 210.66992 359.70508 C 210.58604 361.20429 210.50185 362.8533 210.41797 364.65235 C 210.37603 366.4514 210.35547 368.14364 210.35547 369.72852 L 210.35547 394.65821 L 215.63867 394.65821 L 215.63867 348.78321 L 209.34766 348.78321 L 184.62305 386.75586 L 184.3711 386.75586 C 184.45498 386.07051 184.51861 384.99935 184.56055 383.54297 C 184.64443 382.0866 184.70806 380.48083 184.75 378.72461 C 184.79194 376.9684 184.8125 375.3823 184.8125 373.96875 L 184.8125 348.78321 L 179.52735 348.78321 z M 326.49024 359.57618 C 321.66697 359.57618 317.8511 361.11904 315.04102 364.20313 C 312.23094 367.28722 310.82618 371.678 310.82618 377.375 C 310.82618 381.18728 311.49577 384.44205 312.83789 387.14063 C 314.18002 389.79638 316.00572 391.8306 318.3125 393.24415 C 320.66123 394.61485 323.32489 395.30079 326.30274 395.30079 C 331.12601 395.30079 334.94188 393.73826 337.75196 390.61133 C 340.60398 387.48441 342.0293 383.07201 342.0293 377.375 C 342.0293 373.56273 341.35971 370.34924 340.01758 367.73633 C 338.7174 365.08059 336.8917 363.06798 334.54297 361.69727 C 332.23619 360.28373 329.55197 359.57618 326.49024 359.57618 z M 366.81641 359.57618 C 364.09021 359.57618 361.90916 360.09111 360.27344 361.11915 C 358.63772 362.14718 357.31715 363.41095 356.31055 364.91016 L 356.0586 364.91016 L 355.30469 360.21875 L 350.7754 360.21875 L 350.7754 410.07813 L 356.31055 410.07813 L 356.31055 395.94336 C 356.31055 395.12951 356.26943 394.16644 356.18555 393.05274 C 356.10167 391.93904 356.01748 391.01726 355.9336 390.28907 L 356.31055 390.28907 C 357.27521 391.61694 358.59578 392.79424 360.27344 393.82227 C 361.99304 394.80747 364.15354 395.30079 366.75391 395.30079 C 370.94806 395.30079 374.30383 393.77954 376.82032 390.73829 C 379.37875 387.69703 380.65821 383.24335 380.65821 377.375 C 380.65821 371.42099 379.37875 366.96536 376.82032 364.00977 C 374.30383 361.05418 370.96862 359.57618 366.81641 359.57618 z M 449.16993 359.64063 C 446.98897 359.64063 444.8921 359.94134 442.87891 360.54102 C 440.86572 361.09787 439.12421 361.78185 437.65626 362.59571 L 439.35547 366.8379 C 440.73954 366.15254 442.22849 365.55308 443.82227 365.03907 C 445.41605 364.48222 447.09393 364.20313 448.85547 364.20313 C 451.07837 364.20313 452.79737 364.75935 454.01368 365.87305 C 455.22998 366.98675 455.8379 368.9797 455.8379 371.84961 L 455.8379 373.9043 L 450.11329 374.09766 C 444.61895 374.269 440.55052 375.29692 437.90821 377.18165 C 435.26589 379.02353 433.94532 381.65722 433.94532 385.08399 C 433.94532 388.59643 434.95166 391.18883 436.96485 392.85938 C 438.97804 394.48709 441.51445 395.30079 444.57618 395.30079 C 447.4282 395.30079 449.65232 394.8507 451.2461 393.95118 C 452.88182 393.05165 454.43244 391.66012 455.9004 389.7754 L 456.15235 389.7754 L 457.22266 394.65821 L 461.24805 394.65821 L 461.24805 371.20704 C 461.24805 367.18058 460.26227 364.24619 458.29102 362.4043 C 456.31977 360.56241 453.28019 359.64063 449.16993 359.64063 z M 227.02539 360.21875 L 227.02539 394.65821 L 232.5625 394.65821 L 232.5625 379.30274 L 250.86914 379.30274 L 250.86914 394.65821 L 256.40625 394.65821 L 256.40625 360.21875 L 250.86914 360.21875 L 250.86914 374.54688 L 232.5625 374.54688 L 232.5625 360.21875 L 227.02539 360.21875 z M 389.46485 360.21875 L 389.46485 394.65821 L 394.43555 394.65821 L 394.43555 372.87696 C 394.43555 370.86373 394.37192 368.89241 394.2461 366.96485 L 394.43555 366.96485 L 405.13086 394.65821 L 409.78711 394.65821 L 420.79688 366.96485 L 420.98438 366.96485 C 420.9005 367.90721 420.81631 368.87223 420.73243 369.85743 C 420.69049 370.84262 420.66993 371.78407 420.66993 372.6836 L 420.66993 394.65821 L 425.64063 394.65821 L 425.64063 360.21875 L 418.2793 360.21875 L 407.45899 387.91211 L 396.82618 360.21875 L 389.46485 360.21875 z M 471.69141 360.21875 L 471.69141 394.65821 L 499.56251 394.65821 L 499.56251 406.60938 L 504.97266 406.60938 L 504.97266 389.96875 L 500.19141 389.96875 L 500.19141 360.21875 L 494.6543 360.21875 L 494.6543 389.9043 L 477.22852 389.9043 L 477.22852 360.21875 L 471.69141 360.21875 z M 511.45313 360.21875 L 511.45313 394.65821 L 518.31055 394.65821 L 536.24024 365.87305 C 536.1983 366.4299 536.15523 367.26521 536.11329 368.37891 C 536.07135 369.44978 536.03023 370.54255 535.98829 371.65625 L 535.98829 374.35547 L 535.98829 394.65821 L 541.14649 394.65821 L 541.14649 360.21875 L 534.35352 360.21875 L 516.29688 389.06836 C 516.33882 388.46868 516.37994 387.65499 516.42188 386.62696 C 516.50576 385.59893 516.56939 384.571 516.61133 383.54297 C 516.65328 382.51494 516.67383 381.74449 516.67383 381.23047 L 516.67383 360.21875 L 511.45313 360.21875 z M 561.2793 360.21875 C 557.67234 360.21875 554.77862 361.0973 552.59766 362.85352 C 550.41671 364.5669 549.32618 367.07283 549.32618 370.3711 C 549.32618 372.38432 549.70404 374.07656 550.45899 375.44727 C 551.21394 376.77514 552.19777 377.82469 553.41407 378.59571 C 554.63037 379.3239 555.88927 379.8585 557.18946 380.20118 L 547.56446 394.65821 L 553.98048 394.65821 L 562.66212 380.97266 L 570.8418 380.97266 L 570.8418 394.65821 L 576.37891 394.65821 L 576.37891 360.21875 L 561.2793 360.21875 z M 326.36524 364.33204 C 329.80444 364.33204 332.32029 365.48772 333.91407 367.80079 C 335.50784 370.11385 336.30469 373.30572 336.30469 377.375 C 336.30469 381.44429 335.50784 384.67744 333.91407 387.07618 C 332.32029 389.43208 329.825 390.61133 326.42774 390.61133 C 322.98854 390.61133 320.47269 389.43208 318.87891 387.07618 C 317.32707 384.67744 316.55079 381.44429 316.55079 377.375 C 316.55079 373.30572 317.32707 370.11385 318.87891 367.80079 C 320.43075 365.48772 322.92604 364.33204 326.36524 364.33204 z M 365.81055 364.33204 C 368.91422 364.33204 371.20002 365.50934 372.66797 367.86524 C 374.17787 370.22114 374.9336 373.36977 374.9336 377.31055 C 374.9336 379.88063 374.59685 382.17233 373.92579 384.18555 C 373.29666 386.15594 372.31088 387.71847 370.96875 388.875 C 369.66857 390.03154 367.99068 390.61133 365.93555 390.61133 C 362.2447 390.61133 359.70829 389.47532 358.32422 387.20508 C 356.9821 384.89201 356.31055 381.61563 356.31055 377.375 L 356.31055 376.28125 C 356.39443 372.2548 357.12961 369.25751 358.51368 367.28711 C 359.93969 365.31672 362.37135 364.33204 365.81055 364.33204 z M 282.01172 364.39649 L 282.01172 390.54688 C 278.19505 390.16137 275.38552 388.85436 273.58203 386.62696 C 271.82049 384.39956 270.93946 381.33741 270.93946 377.43946 C 270.93946 373.54151 271.82049 370.49902 273.58203 368.31446 C 275.34358 366.08706 278.1531 364.782 282.01172 364.39649 z M 287.23243 364.45899 C 290.96522 364.88734 293.71307 366.19435 295.47461 368.37891 C 297.2781 370.56348 298.17969 373.58434 298.17969 377.43946 C 298.17969 381.29457 297.29866 384.33511 295.53711 386.5625 C 293.77557 388.7899 291.00716 390.11853 287.23243 390.54688 L 287.23243 364.45899 z M 561.84571 364.91016 L 570.8418 364.91016 L 570.8418 376.28125 L 562.91407 376.28125 C 560.3137 376.28125 558.28046 375.81151 556.81251 374.86915 C 555.3865 373.88395 554.67384 372.40594 554.67384 370.43555 C 554.67384 368.80784 555.21812 367.47921 556.3086 366.45118 C 557.44102 365.42315 559.28728 364.91016 561.84571 364.91016 z M 455.7754 377.82422 L 455.7754 380.90821 C 455.7754 384.24931 454.83073 386.73362 452.94337 388.36133 C 451.056 389.94621 448.68796 390.73829 445.83594 390.73829 C 444.03246 390.73829 442.54351 390.2882 441.36915 389.38868 C 440.23673 388.48915 439.66993 387.076 439.66993 385.14844 C 439.66993 382.96388 440.46678 381.27164 442.06055 380.07227 C 443.69627 378.8729 446.61054 378.18892 450.80469 378.01758 L 455.7754 377.82422 z "
       transform="scale(0.26458333)" />
  </g>
</svg>
