<?xml version="1.0" encoding="UTF-8" standalone="no"?>
<!-- Created with Inkscape (http://www.inkscape.org/) -->

<svg
   width="200mm"
   height="200mm"
   viewBox="0 0 200 200"
   version="1.1"
   id="svg5"
   inkscape:version="1.3 (0e150ed6c4, 2023-07-21)"
   sodipodi:docname="newSession_pressed.svg"
   inkscape:export-filename="home.svg"
   inkscape:export-xdpi="25.4"
   inkscape:export-ydpi="25.4"
   xml:space="preserve"
   xmlns:inkscape="http://www.inkscape.org/namespaces/inkscape"
   xmlns:sodipodi="http://sodipodi.sourceforge.net/DTD/sodipodi-0.dtd"
   xmlns="http://www.w3.org/2000/svg"
   xmlns:svg="http://www.w3.org/2000/svg"><sodipodi:namedview
     id="namedview7"
     pagecolor="#505050"
     bordercolor="#eeeeee"
     borderopacity="1"
     inkscape:pageshadow="0"
     inkscape:pageopacity="0"
     inkscape:pagecheckerboard="0"
     inkscape:document-units="mm"
     showgrid="false"
     width="200mm"
     inkscape:zoom="0.96102398"
     inkscape:cx="258.05808"
     inkscape:cy="388.64795"
     inkscape:window-width="1920"
     inkscape:window-height="1001"
     inkscape:window-x="-9"
     inkscape:window-y="-9"
     inkscape:window-maximized="1"
     inkscape:current-layer="layer1"
     inkscape:showpageshadow="0"
     inkscape:deskcolor="#505050" /><defs
     id="defs2"><linearGradient
       id="swatch1"
       inkscape:swatch="solid"><stop
         style="stop-color:#000000;stop-opacity:1;"
         offset="0"
         id="stop1" /></linearGradient></defs><g
     inkscape:label="Layer 1"
     inkscape:groupmode="layer"
     id="layer1"
     transform="translate(-24.495907,-32.70782)"><rect
       style="fill:#0c2731;fill-opacity:1;stroke:#ffffff;stroke-width:2.00961;stroke-miterlimit:4;stroke-dasharray:none;stroke-opacity:1"
       id="rect382"
       width="197.99039"
       height="197.99039"
       x="25.500711"
       y="33.305332"
       ry="45.006634" /><rect
       style="fill:#e3e4e5;fill-opacity:1;stroke:none;stroke-width:1.83577;stroke-miterlimit:4;stroke-dasharray:none;stroke-opacity:0.941176"
       id="rect382-3"
       width="180.86423"
       height="180.8642"
       x="34.033142"
       y="42.305744"
       ry="41.113567" /><g
       id="g18"
       transform="matrix(3.9481906,0,0,4.0158487,63.97069,68.046946)"
       style="fill:#0c2731;fill-opacity:1"><g
         id="g2"
         style="fill:#0c2731;fill-opacity:1">&#10;	<g
   id="g1"
   style="fill:#0c2731;fill-opacity:1">&#10;		<path
   style="fill:#0c2731;fill-opacity:1"
   d="M 24,14.059 V 5.584 L 18.414,0 H 0 v 32 h 24 v -0.059 c 4.499,-0.5 7.998,-4.309 8,-8.941 -0.002,-4.634 -3.501,-8.444 -8,-8.941 z M 17.998,2.413 21.586,6 h -3.588 c 0,0 0,-3.587 0,-3.587 z M 2,30 V 1.998 h 14 v 6.001 h 6 v 6.06 c -4.501,0.498 -8,4.308 -8,8.941 0,2.829 1.308,5.352 3.35,7 z M 23,29.883 C 19.199,29.874 16.124,26.799 16.115,23 16.124,19.199 19.199,16.124 23,16.115 26.799,16.124 29.874,19.199 29.883,23 29.874,26.799 26.799,29.874 23,29.883 Z"
   id="path1" />&#10;		<polygon
   style="fill:#0c2731;fill-opacity:1"
   points="18,24 22,24 22,28 24.002,28 24.002,24 28,24 28,22 24.002,22 24.002,18 22,18 22,22 18,22 "
   id="polygon1" />&#10;	</g>&#10;</g><g
         id="g3"
         style="fill:#0c2731;fill-opacity:1">&#10;</g><g
         id="g4"
         style="fill:#0c2731;fill-opacity:1">&#10;</g><g
         id="g5"
         style="fill:#0c2731;fill-opacity:1">&#10;</g><g
         id="g6"
         style="fill:#0c2731;fill-opacity:1">&#10;</g><g
         id="g7"
         style="fill:#0c2731;fill-opacity:1">&#10;</g><g
         id="g8"
         style="fill:#0c2731;fill-opacity:1">&#10;</g><g
         id="g9"
         style="fill:#0c2731;fill-opacity:1">&#10;</g><g
         id="g10"
         style="fill:#0c2731;fill-opacity:1">&#10;</g><g
         id="g11"
         style="fill:#0c2731;fill-opacity:1">&#10;</g><g
         id="g12"
         style="fill:#0c2731;fill-opacity:1">&#10;</g><g
         id="g13"
         style="fill:#0c2731;fill-opacity:1">&#10;</g><g
         id="g14"
         style="fill:#0c2731;fill-opacity:1">&#10;</g><g
         id="g15"
         style="fill:#0c2731;fill-opacity:1">&#10;</g><g
         id="g16"
         style="fill:#0c2731;fill-opacity:1">&#10;</g><g
         id="g17"
         style="fill:#0c2731;fill-opacity:1">&#10;</g></g></g></svg>
