<?xml version="1.0" encoding="UTF-8" standalone="no"?>
<!-- Created with Inkscape (http://www.inkscape.org/) -->

<svg
   width="200mm"
   height="200mm"
   viewBox="0 0 200 200"
   version="1.1"
   id="svg5"
   inkscape:version="1.3 (0e150ed6c4, 2023-07-21)"
   sodipodi:docname="newSession_pressed.svg"
   inkscape:export-filename="home.svg"
   inkscape:export-xdpi="25.4"
   inkscape:export-ydpi="25.4"
   xml:space="preserve"
   xmlns:inkscape="http://www.inkscape.org/namespaces/inkscape"
   xmlns:sodipodi="http://sodipodi.sourceforge.net/DTD/sodipodi-0.dtd"
   xmlns="http://www.w3.org/2000/svg"
   xmlns:svg="http://www.w3.org/2000/svg"><sodipodi:namedview
     id="namedview7"
     pagecolor="#505050"
     bordercolor="#eeeeee"
     borderopacity="1"
     inkscape:pageshadow="0"
     inkscape:pageopacity="0"
     inkscape:pagecheckerboard="0"
     inkscape:document-units="mm"
     showgrid="false"
     width="200mm"
     inkscape:zoom="0.78374771"
     inkscape:cx="330.46349"
     inkscape:cy="351.51618"
     inkscape:window-width="1920"
     inkscape:window-height="1001"
     inkscape:window-x="-9"
     inkscape:window-y="-9"
     inkscape:window-maximized="1"
     inkscape:current-layer="layer1"
     inkscape:showpageshadow="0"
     inkscape:deskcolor="#505050" /><defs
     id="defs2"><linearGradient
       id="swatch1"
       inkscape:swatch="solid"><stop
         style="stop-color:#000000;stop-opacity:1;"
         offset="0"
         id="stop1" /></linearGradient></defs><g
     inkscape:label="Layer 1"
     inkscape:groupmode="layer"
     id="layer1"
     transform="translate(-24.495907,-32.70782)"><rect
       style="fill:#0c2731;fill-opacity:1;stroke:#ffffff;stroke-width:2.00961;stroke-miterlimit:4;stroke-dasharray:none;stroke-opacity:1"
       id="rect382"
       width="197.99039"
       height="197.99039"
       x="25.500711"
       y="33.712624"
       ry="45.006634" /><rect
       style="fill:#e3e4e5;fill-opacity:1;stroke:none;stroke-width:1.83577;stroke-miterlimit:4;stroke-dasharray:none;stroke-opacity:0.941176"
       id="rect382-3"
       width="180.86423"
       height="180.8642"
       x="34.033142"
       y="42.305744"
       ry="41.113567" /><g
       id="g1"
       transform="matrix(0.12261073,0,0,0.11258304,79.548396,75.065244)"
       style="fill:#0c2731;fill-opacity:1;stroke:#0c2731;stroke-width:55.5068;stroke-dasharray:none;stroke-opacity:1"><g
         id="g2"
         style="fill:#0c2731;fill-opacity:1;stroke:#0c2731;stroke-width:55.5068;stroke-dasharray:none;stroke-opacity:1">&#10;	<path
   d="m 348.54877,484.72887 -159.419,-159.411 c -11.754,-11.755 -30.775,-11.771 -42.53,-0.094 -11.786,11.684 -11.896,30.748 -0.267,42.582 l 106.373,108.197 h -428.224 c -16.636,0 -30.132,13.357 -30.132,30 0,16.643 13.497,30 30.132,30 h 430.013 l -107.99,108.055 c -11.755,11.763 -11.755,30.887 0,42.649 5.885,5.885 13.606,8.848 21.312,8.848 7.706,0 15.427,-2.933 21.312,-8.818 l 159.419,-159.406 c 5.649,-5.65 8.82,-13.314 8.82,-21.302 0,-7.987 -3.17,-15.651 -8.819,-21.3 z"
   id="path1"
   style="fill:#0c2731;fill-opacity:1;stroke:#0c2731;stroke-width:55.5068;stroke-dasharray:none;stroke-opacity:1" />&#10;	<path
   d="m 112.928,787.552 c 16.636,0 30,13.489 30,30.132 V 964 h 526 V 60 h -526 v 146.376 c 0,16.643 -13.364,30.132 -30,30.132 -16.635,0 -30,-13.489 -30,-30.132 V 29.914 C 82.928,13.27 96.617,0 113.252,0 h 585.571 c 16.635,0 30.105,13.27 30.105,29.914 v 964.233 c 0,16.643 -13.47,29.854 -30.106,29.854 H 113.251 c -16.635,0 -30.324,-13.21 -30.324,-29.854 V 817.684 c 10e-4,-16.643 13.366,-30.132 30.001,-30.132 z"
   id="path2"
   style="fill:#0c2731;fill-opacity:1;stroke:#0c2731;stroke-width:55.5068;stroke-dasharray:none;stroke-opacity:1" />&#10;</g></g></g></svg>
