<?xml version="1.0" encoding="UTF-8" standalone="no"?>
<!-- Created with Inkscape (http://www.inkscape.org/) -->

<svg
   width="200mm"
   height="200mm"
   viewBox="0 0 200 200"
   version="1.1"
   id="svg5"
   inkscape:version="1.3 (0e150ed6c4, 2023-07-21)"
   sodipodi:docname="patient_pressed.svg"
   inkscape:export-filename="home.svg"
   inkscape:export-xdpi="25.4"
   inkscape:export-ydpi="25.4"
   xml:space="preserve"
   xmlns:inkscape="http://www.inkscape.org/namespaces/inkscape"
   xmlns:sodipodi="http://sodipodi.sourceforge.net/DTD/sodipodi-0.dtd"
   xmlns="http://www.w3.org/2000/svg"
   xmlns:svg="http://www.w3.org/2000/svg"><sodipodi:namedview
     id="namedview7"
     pagecolor="#505050"
     bordercolor="#eeeeee"
     borderopacity="1"
     inkscape:pageshadow="0"
     inkscape:pageopacity="0"
     inkscape:pagecheckerboard="0"
     inkscape:document-units="mm"
     showgrid="false"
     width="200mm"
     inkscape:zoom="0.77441738"
     inkscape:cx="378.34895"
     inkscape:cy="522.32815"
     inkscape:window-width="1920"
     inkscape:window-height="1001"
     inkscape:window-x="-9"
     inkscape:window-y="-9"
     inkscape:window-maximized="1"
     inkscape:current-layer="layer1"
     inkscape:showpageshadow="0"
     inkscape:deskcolor="#505050" /><defs
     id="defs2"><linearGradient
       id="swatch1"
       inkscape:swatch="solid"><stop
         style="stop-color:#000000;stop-opacity:1;"
         offset="0"
         id="stop1" /></linearGradient></defs><g
     inkscape:label="Layer 1"
     inkscape:groupmode="layer"
     id="layer1"
     transform="translate(-24.495907,-32.70782)"><rect
       style="fill:#0c2731;fill-opacity:1;stroke:#ffffff;stroke-width:2.00961;stroke-miterlimit:4;stroke-dasharray:none;stroke-opacity:1"
       id="rect382"
       width="197.99039"
       height="197.99039"
       x="25.500711"
       y="33.712624"
       ry="45.006634" /><rect
       style="fill:#e3e4e5;fill-opacity:1;stroke:none;stroke-width:1.83577;stroke-miterlimit:4;stroke-dasharray:none;stroke-opacity:0.941176"
       id="rect382-3"
       width="180.86423"
       height="180.8642"
       x="34.033142"
       y="42.305744"
       ry="41.113567" /><g
       id="g1"
       transform="matrix(5.8022365,0,0,5.489053,54.869067,66.839181)"><path
         d="M 9,10 C 6.243,10 4,7.757 4,5 4,2.243 6.243,0 9,0 c 2.757,0 5,2.243 5,5 0,2.757 -2.243,5 -5,5 z M 9,1.5 C 7.07,1.5 5.5,3.07 5.5,5 5.5,6.93 7.07,8.5 9,8.5 10.93,8.5 12.5,6.93 12.5,5 12.5,3.07 10.93,1.5 9,1.5 Z"
         id="path2"
         style="fill:#0c2731;fill-opacity:1" /><path
         d="M 6.5,21 H 0.75 C 0.336,21 0,20.664 0,20.25 v -3.5 C 0,14.131 2.131,12 4.75,12 h 8.5 c 1.295,0 2.544,0.534 3.425,1.465 0.285,0.301 0.271,0.775 -0.029,1.061 -0.301,0.283 -0.776,0.271 -1.061,-0.029 -0.599,-0.633 -1.45,-0.996 -2.335,-0.996 h -8.5 c -1.792,0 -3.25,1.458 -3.25,3.25 v 2.75 h 5 c 0.414,0 0.75,0.336 0.75,0.75 C 7.25,20.665 6.914,21 6.5,21 Z"
         id="path3"
         style="fill:#0c2731;fill-opacity:1" /><path
         d="m 14.5,24 c -0.269,0 -0.517,-0.144 -0.651,-0.378 L 12.065,20.5 H 9.75 C 9.336,20.5 9,20.164 9,19.75 9,19.336 9.336,19 9.75,19 h 2.75 c 0.269,0 0.518,0.145 0.651,0.378 l 1.278,2.236 2.39,-5.179 c 0.119,-0.257 0.373,-0.426 0.656,-0.436 0.293,0.013 0.548,0.143 0.683,0.391 l 2.787,5.109 h 2.305 c 0.414,0 0.75,0.336 0.75,0.75 C 24,22.663 23.664,23 23.25,23 H 20.5 c -0.274,0 -0.527,-0.15 -0.658,-0.391 l -2.286,-4.19 -2.375,5.146 C 15.063,23.82 14.813,23.988 14.533,24 14.521,24 14.511,24 14.5,24 Z"
         id="path4"
         style="display:inline;fill:#0c2731;fill-opacity:1" /></g></g></svg>
