<?xml version="1.0" encoding="UTF-8" standalone="no"?>
<!-- Created with Inkscape (http://www.inkscape.org/) -->

<svg
   width="200mm"
   height="200mm"
   viewBox="0 0 200 200"
   version="1.1"
   id="svg5"
   inkscape:version="1.3 (0e150ed6c4, 2023-07-21)"
   sodipodi:docname="powerOff_pressed.svg"
   inkscape:export-filename="home.svg"
   inkscape:export-xdpi="25.4"
   inkscape:export-ydpi="25.4"
   xml:space="preserve"
   xmlns:inkscape="http://www.inkscape.org/namespaces/inkscape"
   xmlns:sodipodi="http://sodipodi.sourceforge.net/DTD/sodipodi-0.dtd"
   xmlns="http://www.w3.org/2000/svg"
   xmlns:svg="http://www.w3.org/2000/svg"><sodipodi:namedview
     id="namedview7"
     pagecolor="#505050"
     bordercolor="#eeeeee"
     borderopacity="1"
     inkscape:pageshadow="0"
     inkscape:pageopacity="0"
     inkscape:pagecheckerboard="0"
     inkscape:document-units="mm"
     showgrid="false"
     width="200mm"
     inkscape:zoom="0.78374771"
     inkscape:cx="256.46008"
     inkscape:cy="351.51618"
     inkscape:window-width="1920"
     inkscape:window-height="1001"
     inkscape:window-x="-9"
     inkscape:window-y="-9"
     inkscape:window-maximized="1"
     inkscape:current-layer="layer1"
     inkscape:showpageshadow="0"
     inkscape:deskcolor="#505050" /><defs
     id="defs2"><linearGradient
       id="swatch1"
       inkscape:swatch="solid"><stop
         style="stop-color:#000000;stop-opacity:1;"
         offset="0"
         id="stop1" /></linearGradient></defs><g
     inkscape:label="Layer 1"
     inkscape:groupmode="layer"
     id="layer1"
     transform="translate(-24.495907,-32.70782)"><rect
       style="fill:#0c2731;fill-opacity:1;stroke:#ffffff;stroke-width:2.00961;stroke-miterlimit:4;stroke-dasharray:none;stroke-opacity:1"
       id="rect382"
       width="197.99039"
       height="197.99039"
       x="25.500711"
       y="33.712624"
       ry="45.006634" /><rect
       style="fill:#e3e4e5;fill-opacity:1;stroke:none;stroke-width:1.83577;stroke-miterlimit:4;stroke-dasharray:none;stroke-opacity:0.941176"
       id="rect382-3"
       width="180.86423"
       height="180.8642"
       x="34.033142"
       y="42.305744"
       ry="41.113567" /><g
       id="g1"
       transform="matrix(0.30236255,0,0,0.29288723,52.672251,63.134652)"
       style="fill:#0c2731;fill-opacity:1;stroke:#0c2731;stroke-width:20.4685;stroke-dasharray:none;stroke-opacity:1"><g
         id="g3"
         style="fill:#0c2731;fill-opacity:1;stroke:#0c2731;stroke-width:20.4685;stroke-dasharray:none;stroke-opacity:1">&#10;	<g
   id="g2"
   style="fill:#0c2731;fill-opacity:1;stroke:#0c2731;stroke-width:20.4685;stroke-dasharray:none;stroke-opacity:1">&#10;		<path
   d="m 237.545,255.816 c 9.899,0 18.468,-3.609 25.696,-10.848 7.23,-7.229 10.854,-15.799 10.854,-25.694 V 36.547 c 0,-9.9 -3.62,-18.464 -10.854,-25.693 C 256.014,3.617 247.444,0 237.545,0 c -9.9,0 -18.464,3.621 -25.697,10.854 -7.233,7.229 -10.85,15.797 -10.85,25.693 v 182.728 c 0,9.895 3.617,18.464 10.85,25.694 7.233,7.238 15.8,10.847 25.697,10.847 z"
   id="path1-3"
   style="fill:#0c2731;fill-opacity:1;stroke:#0c2731;stroke-width:10.08107943;stroke-dasharray:none;stroke-opacity:1" />&#10;		<path
   d="m 433.836,157.887 c -15.325,-30.642 -36.878,-56.339 -64.666,-77.084 -7.994,-6.09 -17.035,-8.47 -27.123,-7.139 -10.089,1.333 -18.083,6.091 -23.983,14.273 -6.091,7.993 -8.418,16.986 -6.994,26.979 1.423,9.998 6.139,18.037 14.133,24.128 18.645,14.084 33.072,31.312 43.25,51.678 10.184,20.364 15.27,42.065 15.27,65.091 0,19.801 -3.854,38.688 -11.561,56.678 -7.706,17.987 -18.13,33.544 -31.265,46.679 -13.135,13.131 -28.688,23.551 -46.678,31.261 -17.987,7.71 -36.878,11.57 -56.673,11.57 -19.792,0 -38.684,-3.86 -56.671,-11.57 -17.989,-7.71 -33.547,-18.13 -46.682,-31.261 -13.129,-13.135 -23.551,-28.691 -31.261,-46.679 -7.708,-17.99 -11.563,-36.877 -11.563,-56.678 0,-23.026 5.092,-44.724 15.274,-65.091 10.183,-20.364 24.601,-37.591 43.253,-51.678 7.994,-6.095 12.703,-14.133 14.133,-24.128 1.427,-9.989 -0.903,-18.986 -6.995,-26.979 -5.901,-8.182 -13.844,-12.941 -23.839,-14.273 -9.994,-1.332 -19.085,1.049 -27.268,7.139 -27.792,20.745 -49.344,46.442 -64.669,77.084 -15.324,30.646 -22.983,63.288 -22.983,97.927 0,29.697 5.806,58.054 17.415,85.082 11.613,27.028 27.218,50.34 46.826,69.948 19.602,19.603 42.919,35.215 69.949,46.815 27.028,11.615 55.388,17.426 85.08,17.426 29.693,0 58.052,-5.811 85.081,-17.426 27.031,-11.604 50.347,-27.213 69.952,-46.815 19.602,-19.602 35.207,-42.92 46.818,-69.948 11.611,-27.028 17.412,-55.392 17.412,-85.082 0.001,-34.64 -7.648,-67.282 -22.972,-97.927 z"
   id="path2-8"
   style="fill:#0c2731;fill-opacity:1;stroke:#0c2731;stroke-width:10.08107943;stroke-dasharray:none;stroke-opacity:1" />&#10;	</g>&#10;</g></g></g></svg>
