<?xml version="1.0" encoding="UTF-8" standalone="no"?>
<!-- Created with Inkscape (http://www.inkscape.org/) -->

<svg
   width="175mm"
   height="200mm"
   viewBox="0 0 175 200"
   version="1.1"
   id="svg5"
   inkscape:version="1.2.1 (9c6d41e, 2022-07-14)"
   sodipodi:docname="ppmFormat.svg"
   xmlns:inkscape="http://www.inkscape.org/namespaces/inkscape"
   xmlns:sodipodi="http://sodipodi.sourceforge.net/DTD/sodipodi-0.dtd"
   xmlns="http://www.w3.org/2000/svg"
   xmlns:svg="http://www.w3.org/2000/svg">
  <sodipodi:namedview
     id="namedview7"
     pagecolor="#505050"
     bordercolor="#eeeeee"
     borderopacity="1"
     inkscape:pageshadow="0"
     inkscape:pageopacity="0"
     inkscape:pagecheckerboard="0"
     inkscape:document-units="mm"
     showgrid="false"
     inkscape:zoom="1.0292162"
     inkscape:cx="220.55619"
     inkscape:cy="399.33301"
     inkscape:window-width="1920"
     inkscape:window-height="1051"
     inkscape:window-x="0"
     inkscape:window-y="0"
     inkscape:window-maximized="1"
     inkscape:current-layer="layer1"
     inkscape:showpageshadow="0"
     inkscape:deskcolor="#505050" />
  <defs
     id="defs2">
    <rect
       x="0"
       y="472.44095"
       width="660.83051"
       height="234.39201"
       id="rect52760" />
    <rect
       x="179.55969"
       y="517.11084"
       width="368.72961"
       height="229.01775"
       id="rect31694" />
    <rect
       x="152.16112"
       y="531.87634"
       width="404.72336"
       height="199.36104"
       id="rect8022" />
  </defs>
  <g
     inkscape:label="Layer 1"
     inkscape:groupmode="layer"
     id="layer1">
    <rect
       style="fill:#0083a1;fill-opacity:0.627451;stroke-width:0.456363"
       id="rect846"
       width="175"
       height="200"
       x="0"
       y="-3.5527137e-15"
       ry="19.540684" />
    <path
       id="rect1067"
       style="fill:#006080;fill-opacity:0.999074;stroke-width:1.70569"
       d="M 59.929688,472.44141 C 26.728335,472.44141 0,499.16974 0,532.37109 v 163.60352 c 0,33.20135 26.728335,59.93164 59.929688,59.93164 H 601.48633 c 33.20135,0 59.93164,-26.73029 59.93164,-59.93164 V 532.37109 c 0,-33.20135 -26.73029,-59.92968 -59.93164,-59.92968 z"
       transform="scale(0.26458333)" />
    <rect
       style="fill:#006080;fill-opacity:0.999074;stroke-width:0.287386"
       id="rect2291"
       width="175"
       height="32.151508"
       x="0"
       y="125"
       ry="0" />
    <g
       aria-label="PPM"
       transform="matrix(0.61459123,0,0,0.61459123,-112.78675,-165.77579)"
       id="text52758"
       style="font-size:96px;line-height:1.25;white-space:pre;shape-inside:url(#rect52760);fill:#00a9e4">
      <path
         d="m 256.2551,491.24542 q 13.44,0 19.584,5.28 6.144,5.28 6.144,14.88 0,5.664 -2.592,10.656 -2.496,4.896 -8.544,7.968 -5.952,3.072 -16.224,3.072 h -7.872 v 26.688 h -8.64 v -68.544 z m -0.768,7.392 h -8.736 v 27.072 h 6.912 q 9.792,0 14.592,-3.168 4.8,-3.168 4.8,-10.752 0,-6.624 -4.224,-9.888 -4.224,-3.264 -13.344,-3.264 z"
         style="text-align:center;text-anchor:middle"
         id="path834" />
      <path
         d="m 314.33506,491.24542 q 13.44,0 19.584,5.28 6.144,5.28 6.144,14.88 0,5.664 -2.592,10.656 -2.496,4.896 -8.544,7.968 -5.952,3.072 -16.224,3.072 h -7.872 v 26.688 h -8.64 v -68.544 z m -0.768,7.392 h -8.736 v 27.072 h 6.912 q 9.792,0 14.592,-3.168 4.8,-3.168 4.8,-10.752 0,-6.624 -4.224,-9.888 -4.224,-3.264 -13.344,-3.264 z"
         style="text-align:center;text-anchor:middle"
         id="path836" />
      <path
         d="m 384.51101,559.78942 -22.56,-60.096 h -0.384 q 0.288,2.976 0.48,8.064 0.192,4.992 0.192,10.464 v 41.568 h -7.968 v -68.544 h 12.768 l 21.12,56.16 h 0.384 l 21.504,-56.16 h 12.672 v 68.544 h -8.544 v -42.144 q 0,-4.992 0.192,-9.888 0.288,-4.896 0.48,-7.968 h -0.384 l -22.848,60 z"
         style="text-align:center;text-anchor:middle"
         id="path838" />
    </g>
    <rect
       style="fill:#006080;fill-opacity:0;stroke:#000000;stroke-width:0.993936;stroke-miterlimit:1.6;stroke-dasharray:none;paint-order:stroke fill markers"
       id="rect5395"
       width="124.00607"
       height="98.627579"
       x="25.496967"
       y="15.496968" />
    <path
       style="fill:#00a9e4;fill-opacity:1;stroke:#000000;stroke-width:0.993936;stroke-miterlimit:1.6;stroke-dasharray:none;paint-order:stroke fill markers"
       d="M 99.321785,87.776275 122.73421,64.431161 149.37096,90.991369 V 114.50303 H 98.906975 Z"
       id="path6754" />
    <path
       style="fill:#00a9e4;fill-opacity:1;stroke:#000000;stroke-width:0.993936;stroke-miterlimit:1.6;stroke-dasharray:none;paint-order:stroke fill markers"
       d="M 25.685116,62.783295 50.347073,38.192214 126.8765,114.50167 H 25.639517 Z"
       id="path6752" />
  </g>
</svg>
