<?xml version="1.0" encoding="UTF-8" standalone="no"?>
<!-- Created with Inkscape (http://www.inkscape.org/) -->

<svg
   width="200mm"
   height="200mm"
   viewBox="0 0 200 200"
   version="1.1"
   id="svg239"
   inkscape:version="1.2.1 (9c6d41e, 2022-07-14)"
   sodipodi:docname="reload_pressed.svg"
   xmlns:inkscape="http://www.inkscape.org/namespaces/inkscape"
   xmlns:sodipodi="http://sodipodi.sourceforge.net/DTD/sodipodi-0.dtd"
   xmlns="http://www.w3.org/2000/svg"
   xmlns:svg="http://www.w3.org/2000/svg">
  <sodipodi:namedview
     id="namedview241"
     pagecolor="#505050"
     bordercolor="#eeeeee"
     borderopacity="1"
     inkscape:showpageshadow="0"
     inkscape:pageopacity="0"
     inkscape:pagecheckerboard="0"
     inkscape:deskcolor="#505050"
     inkscape:document-units="mm"
     showgrid="false"
     inkscape:zoom="0.78395062"
     inkscape:cx="344.40945"
     inkscape:cy="288.28346"
     inkscape:window-width="1920"
     inkscape:window-height="1007"
     inkscape:window-x="1920"
     inkscape:window-y="0"
     inkscape:window-maximized="1"
     inkscape:current-layer="layer1" />
  <defs
     id="defs236" />
  <g
     inkscape:label="Layer 1"
     inkscape:groupmode="layer"
     id="layer1">
    <rect
       style="fill:#0c2731;fill-opacity:1;stroke:#f0f0f0;stroke-width:2.00961;stroke-miterlimit:4;stroke-dasharray:none;stroke-opacity:0.94117647"
       id="rect382"
       width="197.99039"
       height="197.99039"
       x="1.004805"
       y="1.004805"
       ry="45.006634" />
    <rect
       style="fill:#f0f0f0;fill-opacity:0.94117647;stroke:none;stroke-width:1.83577;stroke-miterlimit:4;stroke-dasharray:none;stroke-opacity:0.941176"
       id="rect382-3"
       width="180.86421"
       height="180.8642"
       x="9.5372372"
       y="9.5979214"
       ry="41.113567" />
    <path
       id="path3024"
       style="fill:#0c2731;fill-opacity:1;stroke:#0c2731;stroke-width:0.99969;stroke-miterlimit:1.6;stroke-opacity:1;paint-order:stroke fill markers"
       d="M 100.0001 42.999959 A 57.000153 57.000156 0 0 0 42.999959 100.0001 A 57.000153 57.000156 0 0 0 100.0001 157.00024 A 57.000153 57.000156 0 0 0 144.4594 135.66149 L 130.89692 132.02708 A 44.505779 44.505779 0 0 1 100.0001 144.50591 A 44.505779 44.505779 0 0 1 55.494287 100.0001 A 44.505779 44.505779 0 0 1 100.0001 55.494287 A 44.505779 44.505779 0 0 1 142.28279 86.113607 L 156.04112 89.800203 A 57.000153 57.000156 0 0 0 100.0001 42.999959 z " />
    <path
       style="fill:#0c2731;fill-opacity:1;stroke:#0c2731;stroke-width:1;stroke-miterlimit:1.6;stroke-opacity:1;paint-order:stroke fill markers"
       d="m 133.91726,84.815652 29.90762,6.255371 -19.55072,12.634037 z"
       id="path3215"
       sodipodi:nodetypes="cccc" />
  </g>
</svg>
