<?xml version="1.0" encoding="UTF-8" standalone="no"?>
<!-- Created with Inkscape (http://www.inkscape.org/) -->

<svg
   width="200mm"
   height="200mm"
   viewBox="0 0 200 200"
   version="1.1"
   id="svg29312"
   inkscape:version="1.1.2 (0a00cf5339, 2022-02-04)"
   sodipodi:docname="settings_pressed.svg"
   xmlns:inkscape="http://www.inkscape.org/namespaces/inkscape"
   xmlns:sodipodi="http://sodipodi.sourceforge.net/DTD/sodipodi-0.dtd"
   xmlns="http://www.w3.org/2000/svg"
   xmlns:svg="http://www.w3.org/2000/svg">
  <sodipodi:namedview
     id="namedview29314"
     pagecolor="#505050"
     bordercolor="#eeeeee"
     borderopacity="1"
     inkscape:pageshadow="0"
     inkscape:pageopacity="0"
     inkscape:pagecheckerboard="0"
     inkscape:document-units="mm"
     showgrid="false"
     inkscape:zoom="0.77771465"
     inkscape:cx="300.88156"
     inkscape:cy="381.88814"
     inkscape:window-width="2560"
     inkscape:window-height="1367"
     inkscape:window-x="0"
     inkscape:window-y="240"
     inkscape:window-maximized="1"
     inkscape:current-layer="layer1"
     inkscape:showpageshadow="0"
     inkscape:deskcolor="#505050" />
  <defs
     id="defs29309" />
  <g
     inkscape:label="Layer 1"
     inkscape:groupmode="layer"
     id="layer1">
    <rect
       style="fill:#0c2731;fill-opacity:1;stroke:#ffffff;stroke-width:2.00961;stroke-miterlimit:4;stroke-dasharray:none;stroke-opacity:1"
       id="rect382"
       width="197.99039"
       height="197.99039"
       x="1.004805"
       y="1.004805"
       ry="45.006634" />
    <rect
       style="fill:#ffffff;fill-opacity:1;stroke:none;stroke-width:1.83577;stroke-miterlimit:4;stroke-dasharray:none;stroke-opacity:0.941176"
       id="rect382-3"
       width="180.86421"
       height="180.8642"
       x="9.5372372"
       y="9.5979271"
       ry="41.113567" />
    <path
       id="path29395"
       style="fill:#0c2731;fill-opacity:1;stroke-width:0.491586"
       d="m 115.20164,25 a 15.331393,15.31239 0 0 1 0.0436,0.275369 15.331393,15.31239 0 0 1 -15.33125,15.312246 15.331393,15.31239 0 0 1 -15.33125,-15.312246 15.331393,15.31239 0 0 1 0.0159,-0.09812 76.656963,76.561949 0 0 0 -30.398677,13.44322 15.331393,15.31239 0 0 1 4.778982,10.848583 A 15.331393,15.31239 0 0 1 43.647697,64.781296 15.331393,15.31239 0 0 1 34.049326,61.270341 76.656963,76.561949 0 0 0 25,84.697259 15.331393,15.31239 0 0 1 40.273412,100.00002 15.331393,15.31239 0 0 1 25,115.30277 a 76.656963,76.561949 0 0 0 9.049326,23.42693 15.331393,15.31239 0 0 1 9.598371,-3.51097 15.331393,15.31239 0 0 1 15.332043,15.31226 15.331393,15.31239 0 0 1 -4.778982,10.84936 76.656963,76.561949 0 0 0 30.397882,13.44244 15.331393,15.31239 0 0 1 -0.0159,-0.0982 15.331393,15.31239 0 0 1 15.33125,-15.31303 15.331393,15.31239 0 0 1 15.33125,15.31303 15.331393,15.31239 0 0 1 -0.0436,0.27536 76.656963,76.561949 0 0 0 28.13912,-11.92314 15.331393,15.31239 0 0 1 -6.63132,-12.5459 15.331393,15.31239 0 0 1 15.33125,-15.31226 15.331393,15.31239 0 0 1 12.30319,6.21242 76.656963,76.561949 0 0 0 10.65605,-26.12284 15.331393,15.31239 0 0 1 -0.0238,0.005 15.331393,15.31239 0 0 1 -15.33125,-15.31223 15.331393,15.31239 0 0 1 15.33125,-15.312261 15.331393,15.31239 0 0 1 0.0238,0.004 76.656963,76.561949 0 0 0 -10.65605,-26.122845 15.331393,15.31239 0 0 1 -12.30319,6.212418 15.331393,15.31239 0 0 1 -15.33125,-15.312246 15.331393,15.31239 0 0 1 6.63132,-12.545899 76.656963,76.561949 0 0 0 -28.13912,-11.923153 z M 99.91397,61.719003 A 38.328481,38.280973 0 0 1 138.24249,100.00002 38.328481,38.280973 0 0 1 99.91397,138.28103 38.328481,38.280973 0 0 1 61.585449,100.00002 38.328481,38.280973 0 0 1 99.91397,61.719003 Z" />
  </g>
</svg>
