<?xml version="1.0" encoding="UTF-8" standalone="no"?>
<!-- icon666.com - MILLIONS vector ICONS FREE -->

<svg
   id="Capa_1"
   enable-background="new 0 0 240.706 240.706"
   viewBox="0 0 240.706 240.706"
   version="1.1"
   sodipodi:docname="shift_2.svg"
   inkscape:version="1.3 (0e150ed6c4, 2023-07-21)"
   xmlns:inkscape="http://www.inkscape.org/namespaces/inkscape"
   xmlns:sodipodi="http://sodipodi.sourceforge.net/DTD/sodipodi-0.dtd"
   xmlns="http://www.w3.org/2000/svg"
   xmlns:svg="http://www.w3.org/2000/svg">
  <defs
     id="defs1" />
  <sodipodi:namedview
     id="namedview1"
     pagecolor="#ffffff"
     bordercolor="#111111"
     borderopacity="1"
     inkscape:showpageshadow="0"
     inkscape:pageopacity="0"
     inkscape:pagecheckerboard="1"
     inkscape:deskcolor="#d1d1d1"
     showgrid="false"
     inkscape:zoom="3.4108"
     inkscape:cx="120.2064"
     inkscape:cy="120.353"
     inkscape:window-width="1920"
     inkscape:window-height="1017"
     inkscape:window-x="-8"
     inkscape:window-y="1072"
     inkscape:window-maximized="1"
     inkscape:current-layer="Capa_1" />
  <path
     d="M 50.148,-1.5799156e-5 H 190.56 c 5.544,0 10.029,4.485999999156 10.029,10.028999799156 v 90.264996 h 30.089 c 3.977,0 7.581,2.351 9.177,5.994 1.606,3.634 0.901,7.875 -1.783,10.813 l -110.294,120.353 c -1.908,2.075 -4.669,3.257 -7.427,3.252 -2.737,-0.006 -5.47,-1.183 -7.363,-3.252 L 2.635,117.10098 c -2.684,-2.929 -3.389,-7.179 -1.783,-10.813 1.596,-3.644 5.201,-5.994 9.177,-5.994 H 40.117 V 10.028984 C 40.119,4.4859842 44.605,-1.5799156e-5 50.148,-1.5799156e-5 Z M 180.531,20.058984 H 60.178 v 90.264996 c 0,5.544 -4.486,10.029 -10.029,10.029 H 32.833 l 87.552,95.485 87.503,-95.485 h -17.326 c -5.544,0 -10.029,-4.486 -10.029,-10.029 -0.003,0 -0.003,-90.264996 -0.002,-90.264996 z"
     id="path1"
     style="stroke:none;stroke-width:1;stroke-dasharray:none;paint-order:markers stroke fill"
     inkscape:label="path1"
     inkscape:highlight-color="#aaaaaa" />
</svg>
