<?xml version="1.0" encoding="UTF-8" standalone="no"?>
<!-- Created with Inkscape (http://www.inkscape.org/) -->

<svg
   width="100mm"
   height="125mm"
   viewBox="0 0 100 125"
   version="1.1"
   id="svg33614"
   inkscape:version="1.3 (0e150ed6c4, 2023-07-21)"
   sodipodi:docname="softwareStorageUnavailable.svg"
   xml:space="preserve"
   xmlns:inkscape="http://www.inkscape.org/namespaces/inkscape"
   xmlns:sodipodi="http://sodipodi.sourceforge.net/DTD/sodipodi-0.dtd"
   xmlns="http://www.w3.org/2000/svg"
   xmlns:svg="http://www.w3.org/2000/svg"><sodipodi:namedview
     id="namedview33616"
     pagecolor="#505050"
     bordercolor="#eeeeee"
     borderopacity="1"
     inkscape:showpageshadow="0"
     inkscape:pageopacity="0"
     inkscape:pagecheckerboard="0"
     inkscape:deskcolor="#505050"
     inkscape:document-units="mm"
     showgrid="false"
     inkscape:zoom="1.1849519"
     inkscape:cx="175.11259"
     inkscape:cy="170.0491"
     inkscape:window-width="1920"
     inkscape:window-height="1001"
     inkscape:window-x="-9"
     inkscape:window-y="-9"
     inkscape:window-maximized="1"
     inkscape:current-layer="layer1" /><defs
     id="defs33611"><linearGradient
       id="swatch1"
       inkscape:swatch="solid"><stop
         style="stop-color:#0c2731;stop-opacity:1;"
         offset="0"
         id="stop1" /></linearGradient><linearGradient
       id="swatch1-8"
       inkscape:swatch="solid"><stop
         style="stop-color:#000000;stop-opacity:1;"
         offset="0"
         id="stop1-5" /></linearGradient></defs><g
     inkscape:label="Layer 1"
     inkscape:groupmode="layer"
     id="layer1"><g
       id="g1"
       transform="matrix(1.6457076,0,0,1.5458737,-18.149687,-38.866747)"><rect
         style="fill:#e3e4e5;fill-opacity:1;stroke:#0c2731;stroke-width:2.29596;stroke-linecap:round;stroke-linejoin:miter;stroke-dasharray:none;stroke-opacity:1"
         id="rect3"
         width="45.948009"
         height="61.568832"
         x="19.362717"
         y="42.712036" /><path
         d="m 35.346741,71.209449 v 5.935728 c 0.351255,3.282114 3.898934,3.84077 5.725462,3.66619 h 0.562009 v 3.317025 c -1.931905,0.349159 -3.407177,1.990216 -3.407177,4.015349 0,2.234625 1.826527,4.085179 4.109687,4.085179 2.248034,0 4.109687,-1.815635 4.109687,-4.085179 0,-2.025133 -1.475272,-3.66619 -3.372051,-4.015349 v -9.21784 h 1.088892 c 0.07025,0 2.704666,0.10475 4.32044,-1.466475 0.843013,-0.80307 1.26452,-1.885468 1.26452,-3.177362 v -1.780719 h 1.756276 v -4.88825 h -4.917574 v 4.88825 h 1.756276 v 1.780719 c 0,0.907817 -0.281004,1.641054 -0.843012,2.164796 -1.194269,1.15223 -3.301801,1.082398 -3.336926,1.082398 h -1.124017 v -12.6047 h 2.634414 l -3.336925,-6.145228 -3.372051,6.145228 h 2.669541 v 18.505518 h -0.667386 c -0.140502,0 -3.934059,0.31424 -4.250189,-2.409211 v -5.796067 c 1.264519,-0.314245 2.212908,-1.431559 2.212908,-2.793286 0,-1.571223 -1.299645,-2.863117 -2.880293,-2.863117 -1.615775,0 -2.880294,1.291894 -2.880294,2.863117 0,1.361727 0.913264,2.479041 2.177783,2.793286 z"
         id="path1"
         style="stroke-width:0.350207" /><rect
         style="fill:#ffffff;fill-opacity:1;stroke:#0c2731;stroke-width:2.29596;stroke-linecap:round;stroke-linejoin:miter;stroke-dasharray:none;stroke-opacity:1"
         id="rect1"
         width="20.714725"
         height="15.403046"
         x="31.979359"
         y="27.207996" /><g
         id="g3"
         transform="matrix(0.7571099,0,0,0.77361609,10.23988,17.962216)"><path
           style="fill:none;fill-opacity:1;stroke:#0c2731;stroke-width:2;stroke-linecap:round;stroke-linejoin:miter;stroke-dasharray:none;stroke-opacity:1"
           d="m 36.703939,18.545108 v 6.722999 z"
           id="path3" /><path
           style="fill:none;fill-opacity:1;stroke:#0c2731;stroke-width:2;stroke-linecap:round;stroke-linejoin:miter;stroke-dasharray:none;stroke-opacity:1"
           d="m 48.083863,18.545108 v 6.722999 z"
           id="path3-8" /></g></g><g
       id="g2"
       transform="matrix(1.7590513,0,0,1.6811709,-33.903679,-42.039089)"><path
         style="fill:#e3e4e5;fill-opacity:1;stroke:#0c2731;stroke-width:4;stroke-linecap:round;stroke-dasharray:none"
         d="M 28.134053,42.201081 68.995416,96.682897 Z"
         id="path2" /><path
         style="fill:#e3e4e5;fill-opacity:1;stroke:#0c2731;stroke-width:4;stroke-linecap:round;stroke-dasharray:none"
         d="M 68.995416,42.201081 28.134053,96.682897 Z"
         id="path2-9" /></g></g><style
     type="text/css"
     id="style1">&#10;<![CDATA[
	.st0{fill:#EF3E42;}
	.st1{fill:#FFFFFF;}
	.st2{fill:none;}
	.st3{fill-rule:evenodd;clip-rule:evenodd;fill:#FFFFFF;}
]]>&#10;</style><style
     type="text/css"
     id="style1-6">&#10;<![CDATA[
	.st0{fill:#EF3E42;}
	.st1{fill:#FFFFFF;}
	.st2{fill:none;}
	.st3{fill-rule:evenodd;clip-rule:evenodd;fill:#FFFFFF;}
]]>&#10;</style></svg>
