<?xml version="1.0" encoding="UTF-8" standalone="no"?>
<!-- Created with Inkscape (http://www.inkscape.org/) -->

<svg
   width="200mm"
   height="200mm"
   viewBox="0 0 200 200"
   version="1.1"
   id="svg268"
   inkscape:version="1.2.1 (9c6d41e, 2022-07-14)"
   sodipodi:docname="threeHour.svg"
   xmlns:inkscape="http://www.inkscape.org/namespaces/inkscape"
   xmlns:sodipodi="http://sodipodi.sourceforge.net/DTD/sodipodi-0.dtd"
   xmlns="http://www.w3.org/2000/svg"
   xmlns:svg="http://www.w3.org/2000/svg">
  <sodipodi:namedview
     id="namedview270"
     pagecolor="#505050"
     bordercolor="#eeeeee"
     borderopacity="1"
     inkscape:showpageshadow="0"
     inkscape:pageopacity="0"
     inkscape:pagecheckerboard="0"
     inkscape:deskcolor="#505050"
     inkscape:document-units="mm"
     showgrid="false"
     inkscape:zoom="0.78395062"
     inkscape:cx="396.70866"
     inkscape:cy="459.2126"
     inkscape:window-width="1920"
     inkscape:window-height="1051"
     inkscape:window-x="0"
     inkscape:window-y="0"
     inkscape:window-maximized="1"
     inkscape:current-layer="g1567" />
  <defs
     id="defs265">
    <rect
       x="102.23589"
       y="208.71516"
       width="247.06174"
       height="345.59286"
       id="rect845" />
  </defs>
  <g
     inkscape:label="Layer 1"
     inkscape:groupmode="layer"
     id="layer1">
    <rect
       style="fill:#0c2731;fill-opacity:1;stroke:#ffffff;stroke-width:2.00961;stroke-miterlimit:4;stroke-dasharray:none;stroke-opacity:1"
       id="rect382"
       width="197.99039"
       height="197.99039"
       x="1.004805"
       y="1.004805"
       ry="45.006634" />
    <rect
       style="fill:#ffffff;fill-opacity:1;stroke:none;stroke-width:1.83577;stroke-miterlimit:4;stroke-dasharray:none;stroke-opacity:0.941176"
       id="rect382-3"
       width="180.86421"
       height="180.8642"
       x="9.5372372"
       y="9.5979233"
       ry="41.113567" />
    <ellipse
       style="fill:#0c2731;fill-opacity:1;stroke-width:0.312046"
       id="path1899"
       cx="136.60997"
       cy="100.15019"
       rx="44.197361"
       ry="44.347191" />
    <ellipse
       style="fill:#ffffff;fill-opacity:1;stroke-width:0.291243"
       id="path1899-0"
       cx="136.60997"
       cy="100.15019"
       rx="41.250862"
       ry="41.390709" />
    <rect
       style="fill:#0c2731;fill-opacity:1;stroke-width:0.218282"
       id="rect2384"
       width="5"
       height="38.434235"
       x="134.54741"
       y="61.715942"
       ry="1.927989" />
    <rect
       style="fill:#0c2731;fill-opacity:1;stroke-width:0.217912"
       id="rect2384-2"
       width="5"
       height="38.304001"
       x="96.011108"
       y="-172.85143"
       ry="1.9214567"
       transform="rotate(90)" />
    <g
       id="g1567"
       transform="matrix(0.99699827,0,0,1.0001776,5.5536672,1.7090215)">
      <g
         aria-label="3"
         transform="matrix(0.26458333,0,0,0.26458333,-4.8155754,-0.05329086)"
         id="text843"
         style="font-size:294.667px;-inkscape-font-specification:sans-serif;white-space:pre;shape-inside:url(#rect845);display:inline;fill:#0c2731;stroke:#f0f0f0;stroke-width:3.11811;stroke-miterlimit:1.6;stroke-opacity:0.941176;paint-order:stroke fill markers">
        <path
           d="m 247.50716,315.64218 q 0,21.21603 -11.78668,33.88671 -11.78668,12.37601 -31.82404,16.50135 v 1.17867 q 25.34136,2.94667 37.71738,15.91201 12.37601,12.96535 12.37601,33.88671 0,18.26935 -8.54534,32.70803 -8.54535,14.14402 -26.52003,22.10003 -17.68002,7.95601 -45.67339,7.95601 -16.50135,0 -30.64536,-2.65201 -14.14402,-2.35733 -27.10937,-8.84001 v -24.16269 q 13.26002,6.48268 28.5827,10.31335 15.32268,3.536 29.4667,3.536 28.28803,0 40.66405,-10.90268 12.67068,-11.19734 12.67068,-30.64537 0,-19.74268 -15.61735,-28.28803 -15.32269,-8.84001 -43.31605,-8.84001 h -20.33203 v -22.10002 h 20.62669 q 25.9307,0 39.19071,-10.90268 13.55469,-10.90268 13.55469,-28.87737 0,-15.32268 -10.31335,-23.57335 -10.31334,-8.54535 -27.99336,-8.54535 -17.09069,0 -29.17204,5.00934 -12.08134,5.00934 -23.86802,12.67068 l -12.96535,-17.68002 q 11.19735,-8.84001 27.6987,-15.32268 16.79602,-6.48267 38.01204,-6.48267 33.0027,0 48.91472,14.73334 16.20669,14.73335 16.20669,37.42271 z"
           id="path4175" />
      </g>
      <g
         aria-label="h"
         id="text352"
         style="font-size:25.4px;-inkscape-font-specification:sans-serif;fill:#0c2731;stroke:#f0f0f0;stroke-width:0.825;stroke-miterlimit:1.6;stroke-opacity:0.941176;paint-order:stroke fill markers"
         transform="matrix(1.0030108,0,0,0.99982244,-17.864369,-2.8492864)">
        <path
           d="m 84.749051,115.21747 q 0,1.016 -0.127,1.905 h 0.1524 q 0.6604,-1.0414 1.778,-1.5748 1.143,-0.5334 2.4638,-0.5334 2.4892,0 3.7338,1.1938 1.2446,1.1684 1.2446,3.7846 v 8.8646 h -2.2098 v -8.7122 q 0,-3.2766 -3.048,-3.2766 -2.286,0 -3.1496,1.2954 -0.8382,1.27 -0.8382,3.6576 v 7.0358 h -2.2352 v -19.304 h 2.2352 z"
           id="path354" />
      </g>
    </g>
  </g>
</svg>
