<?xml version="1.0" encoding="UTF-8" standalone="no"?>
<!-- Created with Inkscape (http://www.inkscape.org/) -->

<svg
   width="200mm"
   height="200mm"
   viewBox="0 0 200 200"
   version="1.1"
   id="svg5"
   inkscape:version="1.3 (0e150ed6c4, 2023-07-21)"
   sodipodi:docname="tools.svg"
   inkscape:export-filename="home.svg"
   inkscape:export-xdpi="25.4"
   inkscape:export-ydpi="25.4"
   xml:space="preserve"
   xmlns:inkscape="http://www.inkscape.org/namespaces/inkscape"
   xmlns:sodipodi="http://sodipodi.sourceforge.net/DTD/sodipodi-0.dtd"
   xmlns="http://www.w3.org/2000/svg"
   xmlns:svg="http://www.w3.org/2000/svg"><sodipodi:namedview
     id="namedview7"
     pagecolor="#505050"
     bordercolor="#eeeeee"
     borderopacity="1"
     inkscape:pageshadow="0"
     inkscape:pageopacity="0"
     inkscape:pagecheckerboard="0"
     inkscape:document-units="mm"
     showgrid="false"
     width="200mm"
     inkscape:zoom="1.0998546"
     inkscape:cx="257.30674"
     inkscape:cy="365.04825"
     inkscape:window-width="1920"
     inkscape:window-height="1001"
     inkscape:window-x="-9"
     inkscape:window-y="-9"
     inkscape:window-maximized="1"
     inkscape:current-layer="layer1"
     inkscape:showpageshadow="0"
     inkscape:deskcolor="#505050" /><defs
     id="defs2"><linearGradient
       id="swatch1"
       inkscape:swatch="solid"><stop
         style="stop-color:#000000;stop-opacity:1;"
         offset="0"
         id="stop1" /></linearGradient></defs><g
     inkscape:label="Layer 1"
     inkscape:groupmode="layer"
     id="layer1"
     transform="translate(-24.495907,-32.70782)"><rect
       style="fill:#0c2731;fill-opacity:1;stroke:#ffffff;stroke-width:2.00961;stroke-miterlimit:4;stroke-dasharray:none;stroke-opacity:1"
       id="rect382"
       width="197.99039"
       height="197.99039"
       x="25.500711"
       y="33.712624"
       ry="45.006634" /><rect
       style="fill:#ffffff;fill-opacity:1;stroke:none;stroke-width:1.83577;stroke-miterlimit:4;stroke-dasharray:none;stroke-opacity:0.941176"
       id="rect382-3"
       width="180.86423"
       height="180.8642"
       x="34.033142"
       y="42.305744"
       ry="41.113567" /><g
       id="g2"
       transform="matrix(0.40929446,0,0,0.39586085,63.640349,67.226724)"
       style="fill:#0c2731;fill-opacity:1"><path
         d="M 258.697,89.648 227.089,55.609 263.966,21.367 246.68,4.082 187.979,25.098 V 94.252 L 4.958,269.079 c -3.634,3.47 -11.516,11.001 5.919,29.254 17.437,18.252 25.317,10.721 28.951,7.25 l 183.51,-175.291 h 74.19 L 314.186,71.591 296.831,54.235 Z"
         id="path1-7"
         style="fill:#0c2731;fill-opacity:1" /><path
         d="m 189.776,170.604 -35.706,35.706 104.057,98.398 c 2.992,2.831 9.482,8.97 26.994,-9.21 17.51,-18.176 11.017,-24.316 8.024,-27.147 z"
         id="path2"
         style="fill:#0c2731;fill-opacity:1" /><polygon
         points="135,130.856 46.845,42.7 36,22.104 12.895,15.584 2.48,25.999 9,49.104 29.596,59.949 117.752,148.104 "
         id="polygon2"
         style="fill:#0c2731;fill-opacity:1" /></g></g></svg>
