<?xml version="1.0" encoding="UTF-8" standalone="no"?>
<!-- Created with Inkscape (http://www.inkscape.org/) -->

<svg
   width="200mm"
   height="200mm"
   viewBox="0 0 200 200"
   version="1.1"
   id="svg5"
   inkscape:version="1.3 (0e150ed6c4, 2023-07-21)"
   sodipodi:docname="trash_pressed.svg"
   inkscape:export-filename="home.svg"
   inkscape:export-xdpi="25.4"
   inkscape:export-ydpi="25.4"
   xml:space="preserve"
   xmlns:inkscape="http://www.inkscape.org/namespaces/inkscape"
   xmlns:sodipodi="http://sodipodi.sourceforge.net/DTD/sodipodi-0.dtd"
   xmlns="http://www.w3.org/2000/svg"
   xmlns:svg="http://www.w3.org/2000/svg"><sodipodi:namedview
     id="namedview7"
     pagecolor="#505050"
     bordercolor="#eeeeee"
     borderopacity="1"
     inkscape:pageshadow="0"
     inkscape:pageopacity="0"
     inkscape:pagecheckerboard="0"
     inkscape:document-units="mm"
     showgrid="false"
     width="200mm"
     inkscape:zoom="0.77441741"
     inkscape:cx="175.61589"
     inkscape:cy="333.79931"
     inkscape:window-width="1920"
     inkscape:window-height="1001"
     inkscape:window-x="-9"
     inkscape:window-y="-9"
     inkscape:window-maximized="1"
     inkscape:current-layer="layer1"
     inkscape:showpageshadow="0"
     inkscape:deskcolor="#505050" /><defs
     id="defs2"><linearGradient
       id="swatch1"
       inkscape:swatch="solid"><stop
         style="stop-color:#000000;stop-opacity:1;"
         offset="0"
         id="stop1" /></linearGradient></defs><g
     inkscape:label="Layer 1"
     inkscape:groupmode="layer"
     id="layer1"
     transform="translate(-24.495907,-32.70782)"><rect
       style="fill:#0c2731;fill-opacity:1;stroke:#ffffff;stroke-width:2.00961;stroke-miterlimit:4;stroke-dasharray:none;stroke-opacity:1"
       id="rect382"
       width="197.99039"
       height="197.99039"
       x="25.500711"
       y="33.712624"
       ry="45.006634" /><rect
       style="fill:#e3e4e5;fill-opacity:1;stroke:none;stroke-width:1.83577;stroke-miterlimit:4;stroke-dasharray:none;stroke-opacity:0.941176"
       id="rect382-3"
       width="180.86423"
       height="180.8642"
       x="34.033142"
       y="42.305744"
       ry="41.113567" /><path
       style="clip-rule:evenodd;display:inline;fill:#0c2731;fill-opacity:1;fill-rule:evenodd;stroke-width:0.404139"
       d="m 96.052654,180.08687 c 0,0 1.599355,7.44157 9.831696,7.44157 h 37.22311 c 8.23194,0 9.8313,-7.44157 9.8313,-7.44157 l 7.34847,-72.96185 H 88.704577 Z m 42.759866,-61.99756 c 0,-2.01865 1.60215,-3.65463 3.57905,-3.65463 1.9769,0 3.57945,1.63598 3.57945,3.65463 l -3.57945,54.82062 c 0,2.01864 -1.60256,3.65463 -3.57905,3.65463 -1.9765,0 -3.57906,-1.63639 -3.57906,-3.65463 z m -17.89567,0 c 0,-2.01865 1.60256,-3.65463 3.57905,-3.65463 1.9769,0 3.57906,1.63598 3.57906,3.65463 v 54.82062 c 0,2.01864 -1.60216,3.65463 -3.57906,3.65463 -1.97689,0 -3.57905,-1.63639 -3.57905,-3.65463 z m -14.31661,-3.65504 c 1.9769,0 3.57905,1.63599 3.57905,3.65463 l 3.57946,54.82062 c 0,2.01865 -1.60256,3.65463 -3.57946,3.65463 -1.97649,0 -3.57905,-1.63639 -3.57905,-3.65463 l -3.57905,-54.82021 c 0,-2.01865 1.60255,-3.65504 3.57905,-3.65504 z m 51.53932,-21.922447 h -15.74799 v -7.314971 c 0,-5.544627 -1.75613,-7.309662 -7.15811,-7.309662 h -21.47511 c -4.95485,0 -7.15811,2.450711 -7.15811,7.309662 v 7.315379 H 90.852249 c -3.165116,0 -5.726724,2.453162 -5.726724,5.484595 0,3.031844 2.561608,5.484994 5.726724,5.484994 h 67.287311 c 3.16512,0 5.72673,-2.45315 5.72673,-5.484994 0,-3.031433 -2.56161,-5.485003 -5.72673,-5.485003 z m -22.9061,0 h -21.47471 l 4e-4,-7.315379 h 21.47471 v 7.315379 z"
       id="path1" /></g></svg>
