<?xml version="1.0" encoding="UTF-8" standalone="no"?>
<!-- Created with Inkscape (http://www.inkscape.org/) -->

<svg
   width="200mm"
   height="200mm"
   viewBox="0 0 200 200"
   version="1.1"
   id="svg268"
   inkscape:version="1.2.1 (9c6d41e, 2022-07-14)"
   sodipodi:docname="twoHour_pressed.svg"
   xmlns:inkscape="http://www.inkscape.org/namespaces/inkscape"
   xmlns:sodipodi="http://sodipodi.sourceforge.net/DTD/sodipodi-0.dtd"
   xmlns="http://www.w3.org/2000/svg"
   xmlns:svg="http://www.w3.org/2000/svg">
  <sodipodi:namedview
     id="namedview270"
     pagecolor="#505050"
     bordercolor="#eeeeee"
     borderopacity="1"
     inkscape:showpageshadow="0"
     inkscape:pageopacity="0"
     inkscape:pagecheckerboard="0"
     inkscape:deskcolor="#505050"
     inkscape:document-units="mm"
     showgrid="false"
     inkscape:zoom="0.78395062"
     inkscape:cx="396.70866"
     inkscape:cy="459.2126"
     inkscape:window-width="1920"
     inkscape:window-height="1051"
     inkscape:window-x="0"
     inkscape:window-y="0"
     inkscape:window-maximized="1"
     inkscape:current-layer="layer1" />
  <defs
     id="defs265">
    <rect
       x="102.23589"
       y="208.71516"
       width="247.06174"
       height="345.59286"
       id="rect845" />
  </defs>
  <g
     inkscape:label="Layer 1"
     inkscape:groupmode="layer"
     id="layer1">
    <rect
       style="fill:#0c2731;fill-opacity:1;stroke:#f0f0f0;stroke-width:2.00961;stroke-miterlimit:4;stroke-dasharray:none;stroke-opacity:0.94117647"
       id="rect382"
       width="197.99039"
       height="197.99039"
       x="1.004805"
       y="1.004805"
       ry="45.006634" />
    <rect
       style="fill:#f0f0f0;fill-opacity:0.94117647;stroke:none;stroke-width:1.83577;stroke-miterlimit:4;stroke-dasharray:none;stroke-opacity:0.941176"
       id="rect382-3"
       width="180.86421"
       height="180.8642"
       x="9.5372372"
       y="9.5979233"
       ry="41.113567" />
    <ellipse
       style="fill:#0c2731;fill-opacity:1;stroke-width:0.312046"
       id="path1899"
       cx="136.60997"
       cy="100.15019"
       rx="44.197361"
       ry="44.347191" />
    <ellipse
       style="fill:#ffffff;fill-opacity:1;stroke-width:0.291243"
       id="path1899-0"
       cx="136.60997"
       cy="100.15019"
       rx="41.250862"
       ry="41.390709" />
    <rect
       style="fill:#0c2731;fill-opacity:1;stroke-width:0.218282"
       id="rect2384"
       width="5"
       height="38.434235"
       x="134.54741"
       y="61.715942"
       ry="1.927989" />
    <rect
       style="fill:#0c2731;fill-opacity:1;stroke-width:0.217912"
       id="rect2384-2"
       width="5"
       height="38.304001"
       x="96.011108"
       y="-172.85143"
       ry="1.9214567"
       transform="rotate(90)" />
    <g
       id="g1567"
       transform="matrix(0.99699827,0,0,1.0001776,5.5536672,1.7090215)">
      <g
         aria-label="2"
         transform="matrix(0.26458333,0,0,0.26458333,-4.8155754,-0.05329086)"
         id="text843"
         style="font-size:294.667px;-inkscape-font-specification:sans-serif;white-space:pre;shape-inside:url(#rect845);display:inline;fill:#0c2731;stroke:#f0f0f0;stroke-width:3.11811;stroke-miterlimit:1.6;stroke-opacity:0.941176;paint-order:stroke fill markers">
        <path
           d="M 255.46316,476.82503 H 116.38034 v -21.51069 l 55.10273,-55.69206 q 15.91202,-15.91202 26.8147,-28.28804 10.90268,-12.37601 16.50135,-24.16269 5.59867,-12.08135 5.59867,-26.22536 0,-17.38535 -10.31334,-26.22536 -10.31335,-9.13468 -26.8147,-9.13468 -15.32268,0 -27.10936,5.30401 -11.49202,5.304 -23.57336,14.73334 l -13.84935,-17.38535 q 12.37601,-10.31334 28.28803,-17.38535 16.20669,-7.36667 36.24404,-7.36667 29.4667,0 46.55739,15.02801 17.09068,14.73335 17.09068,40.95871 0,16.50136 -6.77734,30.94004 -6.77734,14.43868 -18.85869,28.5827 -12.08134,13.84934 -28.28803,29.76136 L 149.08838,452.073 v 1.17867 h 106.37478 z"
           id="path4027" />
      </g>
    </g>
    <g
       aria-label="h"
       id="text352"
       style="font-size:25.4px;-inkscape-font-specification:sans-serif;fill:#0c2731;stroke:#f0f0f0;stroke-width:0.825;stroke-miterlimit:1.6;stroke-opacity:0.941176;paint-order:stroke fill markers"
       transform="translate(-11.641751,-1.14077)">
      <path
         d="m 84.749051,115.21747 q 0,1.016 -0.127,1.905 h 0.1524 q 0.6604,-1.0414 1.778,-1.5748 1.143,-0.5334 2.4638,-0.5334 2.4892,0 3.7338,1.1938 1.2446,1.1684 1.2446,3.7846 v 8.8646 h -2.2098 v -8.7122 q 0,-3.2766 -3.048,-3.2766 -2.286,0 -3.1496,1.2954 -0.8382,1.27 -0.8382,3.6576 v 7.0358 h -2.2352 v -19.304 h 2.2352 z"
         id="path354" />
    </g>
  </g>
</svg>
