<?xml version="1.0" encoding="UTF-8" standalone="no"?>
<!-- Created with Inkscape (http://www.inkscape.org/) -->

<svg
   width="200mm"
   height="200mm"
   viewBox="0 0 200 200"
   version="1.1"
   id="svg5"
   inkscape:version="1.3 (0e150ed6c4, 2023-07-21)"
   sodipodi:docname="zoomSecondInterval.svg"
   inkscape:export-filename="home.svg"
   inkscape:export-xdpi="25.4"
   inkscape:export-ydpi="25.4"
   xml:space="preserve"
   xmlns:inkscape="http://www.inkscape.org/namespaces/inkscape"
   xmlns:sodipodi="http://sodipodi.sourceforge.net/DTD/sodipodi-0.dtd"
   xmlns="http://www.w3.org/2000/svg"
   xmlns:svg="http://www.w3.org/2000/svg"><sodipodi:namedview
     id="namedview7"
     pagecolor="#505050"
     bordercolor="#eeeeee"
     borderopacity="1"
     inkscape:pageshadow="0"
     inkscape:pageopacity="0"
     inkscape:pagecheckerboard="0"
     inkscape:document-units="mm"
     showgrid="false"
     width="200mm"
     inkscape:zoom="0.79170475"
     inkscape:cx="-25.261943"
     inkscape:cy="385.87617"
     inkscape:window-width="1920"
     inkscape:window-height="1001"
     inkscape:window-x="-9"
     inkscape:window-y="-9"
     inkscape:window-maximized="1"
     inkscape:current-layer="layer1"
     inkscape:showpageshadow="0"
     inkscape:deskcolor="#505050" /><defs
     id="defs2"><linearGradient
       id="swatch1"
       inkscape:swatch="solid"><stop
         style="stop-color:#000000;stop-opacity:1;"
         offset="0"
         id="stop1" /></linearGradient><rect
       x="260"
       y="105"
       width="228"
       height="130"
       id="rect1" /><rect
       x="260"
       y="105"
       width="228"
       height="130"
       id="rect1-8" /><rect
       x="260"
       y="105"
       width="228"
       height="130"
       id="rect1-83" /><rect
       x="260"
       y="105"
       width="228"
       height="130"
       id="rect1-9" /><rect
       x="260"
       y="105"
       width="228"
       height="130"
       id="rect1-6" /><rect
       x="260"
       y="105"
       width="228"
       height="130"
       id="rect1-8-0" /><rect
       x="260"
       y="105"
       width="228"
       height="130"
       id="rect1-85" /><rect
       x="260"
       y="105"
       width="228"
       height="130"
       id="rect1-8-2" /><rect
       x="260"
       y="105"
       width="228"
       height="130"
       id="rect1-83-4" /><rect
       x="260"
       y="105"
       width="228"
       height="130"
       id="rect1-9-7" /><rect
       x="260"
       y="105"
       width="228"
       height="130"
       id="rect1-6-5" /><rect
       x="260"
       y="105"
       width="228"
       height="130"
       id="rect1-8-0-7" /><rect
       x="260"
       y="105"
       width="228"
       height="130"
       id="rect1-92" /><rect
       x="260"
       y="105"
       width="228"
       height="130"
       id="rect1-9-8" /><rect
       x="260"
       y="105"
       width="228"
       height="130"
       id="rect1-3" /><rect
       x="260"
       y="105"
       width="228"
       height="130"
       id="rect1-8-3" /><rect
       x="260"
       y="105"
       width="228"
       height="130"
       id="rect1-83-7" /><rect
       x="260"
       y="105"
       width="228"
       height="130"
       id="rect1-9-6" /><rect
       x="260"
       y="105"
       width="228"
       height="130"
       id="rect1-6-7" /><rect
       x="260"
       y="105"
       width="228"
       height="130"
       id="rect1-8-0-71" /><rect
       x="260"
       y="105"
       width="228"
       height="130"
       id="rect1-85-0" /><rect
       x="260"
       y="105"
       width="228"
       height="130"
       id="rect1-8-2-9" /><rect
       x="260"
       y="105"
       width="228"
       height="130"
       id="rect1-83-4-6" /><rect
       x="260"
       y="105"
       width="228"
       height="130"
       id="rect1-9-7-0" /><rect
       x="260"
       y="105"
       width="228"
       height="130"
       id="rect1-6-5-5" /><rect
       x="260"
       y="105"
       width="228"
       height="130"
       id="rect1-8-0-7-8" /><rect
       x="260"
       y="105"
       width="228"
       height="130"
       id="rect1-84" /><rect
       x="260"
       y="105"
       width="228"
       height="130"
       id="rect1-8-5" /><rect
       x="260"
       y="105"
       width="228"
       height="130"
       id="rect1-83-8" /><rect
       x="260"
       y="105"
       width="228"
       height="130"
       id="rect1-9-67" /><rect
       x="260"
       y="105"
       width="228"
       height="130"
       id="rect1-6-0" /><rect
       x="260"
       y="105"
       width="228"
       height="130"
       id="rect1-8-0-8" /></defs><g
     inkscape:label="Layer 1"
     inkscape:groupmode="layer"
     id="layer1"
     transform="translate(-24.495907,-32.70782)"><rect
       style="fill:#00d7d7;fill-opacity:1;stroke:#ffffff;stroke-width:2.00961;stroke-miterlimit:4;stroke-dasharray:none;stroke-opacity:1"
       id="rect382"
       width="197.99039"
       height="197.99039"
       x="25.500711"
       y="33.305332"
       ry="45.006634" /><rect
       style="fill:#ffffff;fill-opacity:1;stroke:none;stroke-width:1.83577;stroke-miterlimit:4;stroke-dasharray:none;stroke-opacity:0.941176"
       id="rect382-3"
       width="180.86423"
       height="180.8642"
       x="34.033142"
       y="42.305744"
       ry="41.113567" /><g
       inkscape:label="Layer 1"
       id="layer1-9"
       transform="translate(-213.84233,-2.1258785)" /><g
       inkscape:label="Layer 1"
       id="layer1-90"
       transform="translate(-212.19044,0.20861081)"><g
         inkscape:label="Layer 1"
         id="layer1-9-5"
         transform="translate(-213.84233,-2.1258785)" /><g
         id="g2"
         transform="matrix(0.24642614,0,0,0.24585889,277.04744,72.415101)"
         style="fill:#0c2731;fill-opacity:1"><path
           d="M 471.882,407.567 360.567,296.243 c -16.586,25.795 -38.536,47.734 -64.331,64.321 L 407.56,471.888 c 17.772,17.768 46.587,17.768 64.321,0 17.773,-17.739 17.773,-46.554 0.001,-64.321 z"
           id="path1-6-6"
           style="fill:#0c2731;fill-opacity:1"
           transform="translate(-3.2283466e-6)" /><path
           d="M 363.909,181.955 C 363.909,81.473 282.44,0 181.956,0 81.474,0 0.001,81.473 0.001,181.955 c 0,100.482 81.473,181.951 181.955,181.951 100.484,0 181.953,-81.469 181.953,-181.951 z M 181.956,318.416 c -75.252,0 -136.465,-61.208 -136.465,-136.46 0,-75.252 61.213,-136.465 136.465,-136.465 75.25,0 136.468,61.213 136.468,136.465 0,75.252 -61.218,136.46 -136.468,136.46 z"
           id="path2-7"
           style="fill:#0c2731;fill-opacity:1"
           transform="translate(-3.2283466e-6)" /><path
           d="m 75.817,181.955 h 30.322 c 0,-41.803 34.014,-75.814 75.816,-75.814 V 75.816 c -58.517,0 -106.138,47.621 -106.138,106.139 z"
           id="path3-3-3"
           style="fill:#0c2731;fill-opacity:1"
           transform="translate(-3.2283466e-6)" /></g></g><path
       id="path1"
       style="fill:#00d7d7;fill-opacity:1;stroke:#00d7d7;stroke-width:17.651;stroke-linecap:square;paint-order:fill markers stroke;stroke-opacity:1"
       d="m 42.47492,175.90519 a 36.332386,36.223928 0 0 0 -1.74891,0.12478 v 3.24829 c 0,20.07177 16.207463,36.23086 36.339332,36.23086 h 1.499523 A 36.332386,36.223928 0 0 0 78.807401,212.1292 36.332386,36.223928 0 0 0 42.47492,175.90519 Z" /></g></svg>
